<svg width="138px" height="138px" viewBox="41 655 132 131" version="1.1" xmlns="http://www.w3.org/2000/svg" xmlns:xlink="http://www.w3.org/1999/xlink">
    
    <desc>Created with Sketch.</desc>
    <defs></defs>
    <g id="USA" stroke="none" stroke-width="1" fill="none" fill-rule="evenodd" transform="translate(42.000000, 655.000000)">
        <polygon id="Fill-1" fill="#AE8536" points="40.4688461 23.418585 37.8579003 18.1418373 41.9486831 20.6092844 42.7382909 20.2243626 43.2722248 15.5003231 45.8822671 20.7761735 47.0097621 20.2261572 43.1303845 12.3841617 42.3416802 12.7699807 41.6631956 19.0390908 36.2497745 15.7416843 35.4610702 16.126606 39.3404477 23.9686014"></polygon>
        <path d="M50.5383333,15.5918429 L51.0334192,12.1122939 L53.1673479,14.9171083 L50.5383333,15.5918429 Z M55.4069792,17.8861201 L56.6717972,17.5613143 L50.9403647,10.0082345 L50.0884194,10.2271644 L48.7630708,19.5926962 L50.0287923,19.2678904 L50.3504175,16.8641484 L53.9397903,15.942669 L55.4069792,17.8861201 Z" id="Fill-2" fill="#AE8536"></path>
        <path d="M60.6181197,9.6195443 C61.8477035,9.53699698 62.5930427,9.75054331 63.1766659,10.1866085 C63.8813502,10.7276523 64.3430088,11.5863239 64.40896,12.5571522 C64.4740078,13.529775 64.1334104,14.4404873 63.5073254,15.0703592 C62.9878466,15.5808964 62.2777416,15.8913461 61.0481578,15.9729962 L59.7318437,16.060927 L59.3018055,9.70747514 L60.6181197,9.6195443 Z M61.191805,17.1528845 C62.5831048,17.0595702 63.4793188,16.6997715 64.1587067,16.1282211 C65.1832093,15.2596797 65.7614118,13.919183 65.6629367,12.4737076 C65.565365,11.0282323 64.8001501,9.77835817 63.6672346,9.0524801 C62.9164747,8.57783301 61.9931576,8.33826633 60.6009543,8.43158069 L57.9665191,8.60744237 L58.5564664,17.3287462 L61.191805,17.1528845 Z" id="Fill-3" fill="#AE8536"></path>
        <polygon id="Fill-5" fill="#AE8536" points="73.5753671 16.3842075 69.7005068 15.9813407 70.0085804 13.0634723 72.8824276 13.363155 73.0080059 12.1832667 70.1332553 11.8844813 70.36815 9.64942284 74.1183355 10.0397281 74.2421069 8.86073703 69.2433655 8.34033001 68.325469 17.03023 73.4506922 17.5631985"></polygon>
        <polygon id="Fill-7" fill="#AE8536" points="84.2394995 11.3379642 83.0451499 10.9503507 80.3149499 19.2526371 81.5083961 19.6402506"></polygon>
        <polygon id="Fill-9" fill="#AE8536" points="88.3874702 15.3813473 90.233201 23.4611149 91.021002 23.8505229 94.9419378 16.0291643 93.8171532 15.4728671 90.9378854 21.2161866 89.0921545 13.136419 88.3043536 12.747011 84.3825143 20.5674724 85.5082023 21.1237695"></polygon>
        <path d="M75.1884618,58.6556135 C76.2581365,56.7821482 76.7351536,54.6807806 76.7351536,51.8445623 L76.7351536,32.0870407 L75.0872764,32.0870407 L75.0872764,51.9351849 C75.0872764,54.4690287 74.6933759,56.2491797 73.7709622,57.8884618 C71.8927075,61.2208612 68.1885976,63.2917222 64.1050423,63.2917222 C60.0223904,63.2917222 56.3182805,61.2208612 54.4391224,57.8884618 C53.5176121,56.2500769 53.1246151,54.469926 53.1246151,51.9351849 L53.1246151,32.0870407 L51.4758344,32.0870407 L51.4758344,51.8445623 C51.4758344,54.6825751 51.953755,56.7830455 53.0225262,58.6556135 C55.2034338,62.469838 59.4496086,64.8385872 64.1050423,64.8385872 C68.760476,64.8385872 73.0066508,62.469838 75.1884618,58.6556135" id="Fill-11" fill="#AE8536"></path>
        <path d="M42.2855764,88.7600829 C41.3315423,88.3320929 40.3115569,87.949863 39.3249988,87.5801945 C35.3787667,86.1006235 31.6511673,84.7027026 31.6511673,80.4820222 C31.6511673,75.6583875 36.1033267,73.8602915 38.9094158,73.8602915 C41.6305814,73.8602915 43.9397777,74.8239418 45.7701501,76.7234274 L46.0411825,77.005165 L47.1424776,75.8279684 L46.889514,75.578532 C44.7077029,73.4116648 42.022675,72.3134265 38.9094158,72.3134265 C35.465497,72.3134265 30.0023867,74.5314371 30.0023867,80.4820222 C30.0023867,85.7076265 34.4671942,87.4034356 38.7838374,89.043615 C39.7821402,89.4222559 40.8138703,89.8152529 41.7471253,90.2387566 C45.1811062,91.8627854 46.7124395,93.9300574 46.7124395,96.9412401 C46.7124395,101.555815 42.8547445,103.969427 39.044932,103.969427 C35.1348375,103.969427 32.0775916,102.296946 29.9590215,98.9995396 L29.7440024,98.664864 L28.4123297,99.6563291 L28.6165075,99.9470393 C31.3114733,103.798948 34.5141732,105.516292 38.9997599,105.516292 C44.4240223,105.516292 48.3603167,101.91023 48.3603167,96.9412401 C48.3603167,91.9704558 44.8911015,89.8906222 42.2855764,88.7600829" id="Fill-13" fill="#AE8536"></path>
        <path d="M79.8749739,92.7417349 L87.2588008,75.6427753 L94.6426277,92.7417349 L79.8749739,92.7417349 Z M86.7872044,72.7643861 L72.8498133,105.065511 L74.5636417,105.065511 L79.1946825,94.2877027 L95.2786504,94.2877027 L99.9548633,105.065511 L101.667788,105.065511 L87.7294938,72.7643861 L86.7872044,72.7643861 Z" id="Fill-15" fill="#AE8536"></path>
        <path d="M65.3186352,129.20486 C30.0988742,129.20486 1.44532561,100.747569 1.44532561,65.7690391 C1.44532561,30.7905094 30.0988742,2.33321795 65.3186352,2.33321795 C100.538396,2.33321795 129.191945,30.7905094 129.191945,65.7690391 C129.191945,100.747569 100.538396,129.20486 65.3186352,129.20486 M65.3186352,0.897612383 C29.3020389,0.897612383 -0.000180688287,29.9991318 -0.000180688287,65.7690391 C-0.000180688287,101.538946 29.3020389,130.640466 65.3186352,130.640466 C101.335231,130.640466 130.637451,101.538946 130.637451,65.7690391 C130.637451,29.9991318 101.335231,0.897612383 65.3186352,0.897612383" id="Fill-17" fill="#AE8536"></path>
    </g>
</svg>