<?xml version="1.0" encoding="UTF-8" standalone="no"?>
<svg width="218px" height="25px" viewBox="0 0 218 25" version="1.1" xmlns="http://www.w3.org/2000/svg" xmlns:xlink="http://www.w3.org/1999/xlink">
    <!-- Generator: Sketch 39.1 (31720) - http://www.bohemiancoding.com/sketch -->
    <title>YS LOGO</title>
    <desc>Created with Sketch.</desc>
    <defs></defs>
    <g id="Symbols" stroke="none" stroke-width="1" fill="none" fill-rule="evenodd">
        <g id="NAV-1024-W" transform="translate(-403.000000, -62.000000)" fill="#AE8536">
            <g id="NAV">
                <g id="YS-LOGO" transform="translate(403.000000, 61.000000)">
                    <path d="M82.99817,1.67653951 L73.5395284,25.1620199 L80.1556897,25.1620199 L81.2548322,21.7670037 L89.6143313,21.7670037 L90.7460596,25.1620199 L97.4298989,25.1620199 L88.2607692,1.67653951 L82.99817,1.67653951 Z M85.3543707,8.82011678 L88.0339222,17.0058507 L82.7725763,17.0058507 L85.3543707,8.82011678 Z" id="Fill-1"></path>
                    <path d="M101.517782,18.6194689 C101.906304,22.5355634 104.807689,23.3473615 106.291595,23.3473615 C108.781898,23.3473615 111.079194,21.4761607 111.079194,18.8670735 C111.079194,15.5730701 108.196608,14.8524299 105.445618,13.9457782 C103.487966,13.3852803 99.3245098,12.1805176 99.3245098,7.74827222 C99.258085,3.57225447 102.796146,1.2538871 106.431964,1.2538871 C109.401027,1.2538871 112.841331,2.8836427 113.218574,7.32451113 L110.570355,7.32451113 C110.292122,5.80931885 109.512571,3.49095147 106.325434,3.49095147 C103.94166,3.49095147 101.980249,5.08991048 101.980249,7.51791372 C101.957689,10.3770692 104.288824,11.0866227 107.913362,12.2704437 C110.168046,13.1327482 113.738693,14.3818579 113.738693,18.69954 C113.738693,22.5294041 110.804721,25.5856578 106.334207,25.5856578 C102.339945,25.5856578 99.0212116,23.1133074 98.8595362,18.6194689 L101.517782,18.6194689 Z" id="Fill-2"></path>
                    <polygon id="Fill-4" points="116.978092 25.1620199 116.978092 1.67653951 120.720441 1.67653951 129.592539 21.3789666 138.395706 1.67653951 142.128028 1.67653951 142.128028 25.1620199 139.620178 25.1620199 139.682843 4.26961248 130.414703 25.1620199 128.71147 25.1620199 119.420771 4.26961248 119.484689 25.1620199"></polygon>
                    <path d="M206.376856,4.63683103 L201.635629,16.4122156 L211.169469,16.4122156 L206.376856,4.63683103 Z M198.090049,25.1609112 L195.207463,25.1609112 L205.18497,1.67789456 L207.769271,1.67789456 L217.650274,25.1609112 L214.746382,25.1609112 L211.974086,18.5642814 L200.848558,18.5642814 L198.090049,25.1609112 Z" id="Fill-6"></path>
                    <path d="M74.2833609,11.8011036 L62.3870543,11.8011036 L62.3870543,16.5918213 L67.2435849,16.5918213 C66.9202339,17.7362226 66.2447062,18.6884532 65.2759067,19.3216312 C64.3046006,19.9880694 63.0437826,20.3687152 61.5297983,20.3687152 C58.5256425,20.3687152 54.9737954,18.2425186 54.9737954,13.3236871 C54.9737954,8.69064791 58.4955634,6.50162622 61.4984659,6.50162622 C63.1778855,6.50162622 64.4976085,7.1052394 65.5015004,7.96015277 C66.0166059,8.436884 66.4377141,8.97520841 66.7598118,9.54802501 L73.6065799,9.54802501 C72.2793371,5.01107121 67.3714213,1.23417728 61.6601413,1.23417728 C54.6178587,1.23417728 48.8714864,6.31068735 48.8714864,13.3236871 C48.8714864,20.0841547 54.3296001,25.6373961 61.5611308,25.6373961 C65.5015004,25.6373961 70.8606035,23.7033701 73.1842184,18.528311 C74.2194427,16.2456676 74.4137039,13.4850612 74.2833609,11.8011036" id="Fill-8"></path>
                    <path d="M185.966519,14.093725 L185.966519,16.2544139 L193.574039,16.2544139 C193.188023,18.0972819 192.032482,19.8539194 190.351809,21.1473763 C188.693696,22.4297463 186.482878,23.2785004 183.954975,23.2785004 C178.727469,23.2785004 174.137891,19.3685652 174.137891,13.389099 C174.137891,7.50448641 178.716189,3.57237766 183.941189,3.57237766 C186.051743,3.57237766 187.940464,4.17722271 189.499567,5.22307494 C190.512232,5.89074504 191.40834,6.749354 192.162825,7.7656415 L195.209593,7.7656415 C193.322126,3.92715439 188.821532,1.25647401 183.995081,1.25647401 C177.085648,1.25647401 171.468365,6.35638949 171.468365,13.389099 C171.468365,20.3380418 176.990397,25.5956359 183.963749,25.5956359 C188.787693,25.5956359 193.542707,23.0210409 195.629448,18.6356063 C196.340068,17.1561381 196.64086,15.45863 196.684725,14.093725 L185.966519,14.093725 Z" id="Fill-11"></path>
                    <polygon id="Fill-13" points="24.0223428 1.78112474 17.9012343 1.78112474 12.049585 11.6976271 6.27814672 1.78112474 0.000375989463 1.78112474 8.96647139 17.1831159 8.96647139 25.1618967 15.0675271 25.1618967 15.0675271 16.956453"></polygon>
                    <path d="M158.673068,20.1041109 L156.888371,23.129568 L155.093648,20.0474452 C152.144638,19.1888363 150.415086,16.3641729 150.415086,13.3719761 L150.415086,13.3436433 C150.415086,10.0422487 152.703609,6.48585836 156.934743,6.48585836 C161.327554,6.48585836 163.421815,10.3884024 163.421815,13.4372649 C163.421815,16.0328016 161.866472,19.2553569 158.673068,20.1041109 M156.903411,1.25043788 C150.317329,1.25043788 144.309017,6.010359 144.309017,13.6897969 L144.309017,13.7205935 C144.309017,19.7517979 149.347276,25.6228601 156.868319,25.6228601 C164.296617,25.6228601 169.52663,19.9747653 169.52663,13.4372649 C169.52663,6.89976455 164.262778,1.25043788 156.903411,1.25043788" id="Fill-15"></path>
                    <path d="M36.0523763,20.1041109 L34.2676797,23.129568 L32.4742099,20.0474452 C29.5239459,19.1888363 27.7906345,16.3641729 27.7906345,13.3719761 L27.7906345,13.3436433 C27.7906345,10.0422487 30.0829169,6.48585836 34.3140517,6.48585836 C38.7056086,6.48585836 40.8048831,10.3884024 40.8048831,13.4372649 C40.8048831,16.0328016 39.2445269,19.2553569 36.0523763,20.1041109 M34.2802126,1.25043788 C27.6953839,1.25043788 21.6883255,6.010359 21.6883255,13.6897969 L21.6883255,13.7205935 C21.6883255,19.7517979 26.7265843,25.6228601 34.2488802,25.6228601 C41.6759254,25.6228601 46.9059388,19.9747653 46.9059388,13.4372649 C46.9059388,6.89976455 41.6433396,1.25043788 34.2802126,1.25043788" id="Fill-17"></path>
                </g>
            </g>
        </g>
    </g>
</svg>