
<svg class="ys-logo" width="217px" height="25px" viewBox="0 0 271 31" version="1.1" xmlns="http://www.w3.org/2000/svg" xmlns:xlink="http://www.w3.org/1999/xlink">
    <!-- Generator: Sketch 39.1 (31720) - http://www.bohemiancoding.com/sketch -->
    <title>YS LOGO</title>
    <desc>Created with Sketch.</desc>
    <defs></defs>
    <g id="Page-1" stroke="none" stroke-width="1" fill="none" fill-rule="evenodd">
        <g id="Homepage1600" transform="translate(-32.000000, -23.000000)" fill="#AE8536">
            <g id="TOP-NAV">
                <g id="YS-LOGO" transform="translate(32.000000, 23.000000)">
                    <path d="M103.176624,0.843371278 L91.4184046,30.1202712 L99.6430821,30.1202712 L101.009447,25.8880584 L111.401302,25.8880584 L112.808175,30.1202712 L121.116984,30.1202712 L109.718663,0.843371278 L103.176624,0.843371278 Z M106.105663,9.7485243 L109.436665,19.9528254 L102.896184,19.9528254 L106.105663,9.7485243 Z" id="Fill-1"></path>
                    <path d="M126.19871,21.9643549 C126.68169,26.8461417 130.288458,27.8581258 132.133129,27.8581258 C135.228873,27.8581258 138.084686,25.5254948 138.084686,22.2730178 C138.084686,18.1667272 134.501288,17.2683801 131.08148,16.138152 C128.647885,15.4394377 123.472212,13.9375857 123.472212,8.41236744 C123.389638,3.20656148 127.787869,0.316494575 132.307625,0.316494575 C135.998525,0.316494575 140.275233,2.34814097 140.74419,7.88410866 L137.452138,7.88410866 C137.106262,5.99527641 136.137187,3.10520951 132.175195,3.10520951 C129.211881,3.10520951 126.773612,5.098465 126.773612,8.12520351 C126.745568,11.6894146 129.643446,12.5739409 134.14918,14.0496871 C136.95202,15.1246323 141.39076,16.6817672 141.39076,22.0641713 C141.39076,26.8384635 137.743484,30.6483764 132.186101,30.6483764 C127.220758,30.6483764 123.095176,27.566355 122.894194,21.9643549 L126.19871,21.9643549 Z" id="Fill-2"></path>
                    <polygon id="Fill-4" points="145.41772 30.1202712 145.41772 0.843371278 150.069906 0.843371278 161.098982 25.4043331 172.042368 0.843371278 176.682089 0.843371278 176.682089 30.1202712 173.564533 30.1202712 173.642433 4.07588501 162.121029 30.1202712 160.003708 30.1202712 148.454261 4.07588501 148.533719 30.1202712"></polygon>
                    <path d="M256.551046,4.53365809 L250.657135,19.2128024 L262.508835,19.2128024 L256.551046,4.53365809 Z M246.249556,30.1188891 L242.666158,30.1188891 L255.069389,0.845060477 L258.281983,0.845060477 L270.565249,30.1188891 L266.955365,30.1188891 L263.50907,21.8955584 L249.678712,21.8955584 L246.249556,30.1188891 Z" id="Fill-6"></path>
                    <path d="M92.3430771,13.4646098 L77.5545492,13.4646098 L77.5545492,19.4366981 L83.5917959,19.4366981 C83.1898321,20.8633039 82.3500705,22.0503505 81.1457372,22.8396674 C79.9382879,23.6704465 78.3709407,24.144958 76.4888777,24.144958 C72.7543538,24.144958 68.3389842,21.4944503 68.3389842,15.3626559 C68.3389842,9.58712896 72.7169618,6.85830383 76.4499278,6.85830383 C78.5376466,6.85830383 80.1782197,7.61076546 81.426177,8.67649683 C82.0665147,9.27078795 82.5900024,9.94186087 82.9904082,10.6559316 L91.5017576,10.6559316 C89.8518365,5.0001843 83.7507118,0.291924399 76.6509096,0.291924399 C67.8965124,0.291924399 60.7530863,6.62028026 60.7530863,15.3626559 C60.7530863,23.7902261 67.5381726,30.7128731 76.5278277,30.7128731 C81.426177,30.7128731 88.0881814,28.3019246 90.9767118,21.8507179 C92.2636191,19.0051844 92.505109,15.5638242 92.3430771,13.4646098" id="Fill-8"></path>
                    <path d="M231.178563,16.3225819 L231.178563,19.0160874 L240.635618,19.0160874 C240.155754,21.3133988 238.719279,23.5032157 236.630002,25.1156335 C234.568769,26.7142306 231.820458,27.7722837 228.677974,27.7722837 C222.17956,27.7722837 216.474167,22.8981752 216.474167,15.4441981 C216.474167,8.10846508 222.165538,3.20671504 228.660836,3.20671504 C231.284507,3.20671504 233.632411,3.96071231 235.570562,5.26446725 C236.829426,6.09678195 237.943395,7.16712023 238.88131,8.43401991 L242.668806,8.43401991 C240.32246,3.64897821 234.727685,0.31971941 228.72783,0.31971941 C220.138581,0.31971941 213.155628,6.67725235 213.155628,15.4441981 C213.155628,24.1067207 220.020173,30.660815 228.68888,30.660815 C234.685619,30.660815 240.596668,27.4513358 243.190736,21.9844718 C244.074122,20.1401729 244.448041,18.0240666 244.502571,16.3225819 L231.178563,16.3225819 Z" id="Fill-11"></path>
                    <polygon id="Fill-13" points="29.8626371 0.973746772 22.2533693 0.973746772 14.9790712 13.3356164 7.80448515 0.973746772 0.000467399745 0.973746772 11.1463933 20.1738034 11.1463933 30.1201176 18.7307332 30.1201176 18.7307332 19.8912464"></polygon>
                    <path d="M197.249548,23.8151034 L195.030957,27.5866254 L192.799902,23.7444641 C189.13393,22.6741259 186.983891,19.1529126 186.983891,15.4228528 L186.983891,15.3875332 C186.983891,11.2720288 189.828798,6.83864769 195.088603,6.83864769 C200.54939,6.83864769 203.152807,11.7035425 203.152807,15.5042415 C203.152807,18.7398265 201.21933,22.7570502 197.249548,23.8151034 M195.049653,0.312194794 C186.862367,0.312194794 179.393319,6.2458922 179.393319,15.8190469 L179.393319,15.8574378 C179.393319,23.3759115 185.656476,30.6947526 195.006029,30.6947526 C204.24029,30.6947526 210.74182,23.6538616 210.74182,15.5042415 C210.74182,7.35462138 204.198224,0.312194794 195.049653,0.312194794" id="Fill-15"></path>
                    <path d="M44.8174036,23.8151034 L42.5988128,27.5866254 L40.369316,23.7444641 C36.701786,22.6741259 34.5470732,19.1529126 34.5470732,15.4228528 L34.5470732,15.3875332 C34.5470732,11.2720288 37.3966536,6.83864769 42.6564588,6.83864769 C48.1156878,6.83864769 50.7253364,11.7035425 50.7253364,15.5042415 C50.7253364,18.7398265 48.7856274,22.7570502 44.8174036,23.8151034 M42.6143928,0.312194794 C34.4286652,0.312194794 26.9611753,6.2458922 26.9611753,15.8190469 L26.9611753,15.8574378 C26.9611753,23.3759115 33.2243319,30.6947526 42.5754428,30.6947526 C51.8081458,30.6947526 58.3096762,23.6538616 58.3096762,15.5042415 C58.3096762,7.35462138 51.7676378,0.312194794 42.6143928,0.312194794" id="Fill-17"></path>
                </g>
            </g>
        </g>
    </g>
</svg>