<?xml version="1.0" encoding="utf-8"?>
<!-- Generator: Adobe Illustrator 19.2.1, SVG Export Plug-In . SVG Version: 6.00 Build 0)  -->
<svg version="1.1" id="Layer_1" xmlns="http://www.w3.org/2000/svg" xmlns:xlink="http://www.w3.org/1999/xlink" x="0px" y="0px"
	 viewBox="0 0 90 74" style="enable-background:new 0 0 90 74;" xml:space="preserve">
<style type="text/css">
	.st0{fill:#AE8637;}
</style>
<g>
	<path class="st0" d="M55.5,43.7c2.9,0,5.2-2.3,5.2-5.2c0-2.9-5.2-10.3-5.2-10.3s-5.2,7.4-5.2,10.3C50.2,41.3,52.6,43.7,55.5,43.7z"
		/>
	<path class="st0" d="M45,27.8c2.9,0,5.2-2.3,5.2-5.2c0-2.9-5.2-10.3-5.2-10.3s-5.2,7.4-5.2,10.3C39.8,25.5,42.1,27.8,45,27.8z"/>
	<path class="st0" d="M34.5,43.7c2.9,0,5.2-2.3,5.2-5.2c0-2.9-5.2-10.3-5.2-10.3s-5.2,7.4-5.2,10.3C29.3,41.3,31.6,43.7,34.5,43.7z"
		/>
	<rect x="22.8" y="56.9" class="st0" width="44.5" height="4.9"/>
</g>
</svg>
