<?xml version="1.0" encoding="utf-8"?>
<!-- Generator: Adobe Illustrator 19.2.1, SVG Export Plug-In . SVG Version: 6.00 Build 0)  -->
<svg version="1.1" id="Layer_1" xmlns="http://www.w3.org/2000/svg" xmlns:xlink="http://www.w3.org/1999/xlink" x="0px" y="0px"
	 viewBox="0 0 90 74" style="enable-background:new 0 0 90 74;" xml:space="preserve">
<style type="text/css">
	.st0{fill:#AE8637;}
</style>
<path class="st0" d="M69,36.4h-9.2c-0.3-7.7-6.5-13.9-14.2-14.2V13h-1.2v9.2c-7.7,0.3-13.9,6.5-14.2,14.2H21v1.2h9.2
	c0.3,7.7,6.5,13.9,14.2,14.2V61h1.2v-9.2c7.7-0.3,13.9-6.5,14.2-14.2H69V36.4z M57.4,36.4h-8.7c-0.3-1.6-1.5-2.8-3.1-3.1v-8.7
	C52,24.9,57.1,30,57.4,36.4z M44.4,24.6v8.7c-1.6,0.3-2.8,1.5-3.1,3.1h-8.7C32.9,30,38,24.9,44.4,24.6z M32.6,37.6h8.7
	c0.3,1.6,1.5,2.8,3.1,3.1v8.7C38,49.1,32.9,44,32.6,37.6z M45.6,49.4v-8.7c1.6-0.3,2.8-1.5,3.1-3.1h8.7C57.1,44,52,49.1,45.6,49.4z"
	/>
</svg>
