<?xml version="1.0" encoding="utf-8"?>
<!-- Generator: Adobe Illustrator 19.2.1, SVG Export Plug-In . SVG Version: 6.00 Build 0)  -->
<svg version="1.1" id="Layer_1" xmlns="http://www.w3.org/2000/svg" xmlns:xlink="http://www.w3.org/1999/xlink" x="0px" y="0px"
	 viewBox="0 0 90 74" style="enable-background:new 0 0 90 74;" xml:space="preserve">
<style type="text/css">
	.st0{fill:#AE8637;}
</style>
<g>
	<path class="st0" d="M35.2,25.4l-7.2-7.2l-1.8,1.8l7.2,7.2C34,26.6,34.6,26,35.2,25.4z"/>
	<path class="st0" d="M46.3,21.9V11.8h-2.5v10.1c0.4,0,0.8-0.1,1.3-0.1S45.8,21.9,46.3,21.9z"/>
	<path class="st0" d="M40.4,22.6l-3.9-9.3l-2.3,1l3.9,9.4C38.8,23.2,39.6,22.8,40.4,22.6z"/>
	<path class="st0" d="M31.6,30.1l-9.4-3.9l-1,2.3l9.3,3.9C30.8,31.6,31.2,30.8,31.6,30.1z"/>
	<path class="st0" d="M56.6,27.2l7.2-7.2l-1.8-1.8l-7.2,7.2C55.4,26,56,26.6,56.6,27.2z"/>
	<path class="st0" d="M59.4,32.4l9.3-3.9l-1-2.3l-9.4,3.9C58.8,30.8,59.2,31.6,59.4,32.4z"/>
	<path class="st0" d="M29.9,37c0-0.4,0-0.8,0.1-1.3H19.8v2.5h10.1C29.9,37.8,29.9,37.4,29.9,37z"/>
	<path class="st0" d="M55.8,14.2l-2.3-1l-3.9,9.3c0.8,0.3,1.6,0.6,2.3,1L55.8,14.2z"/>
	<path class="st0" d="M60.1,35.7c0,0.4,0.1,0.8,0.1,1.3s0,0.8-0.1,1.3h10.1v-2.5H60.1z"/>
	<path class="st0" d="M54.8,48.6l7.2,7.2l1.8-1.8l-7.2-7.2C56,47.4,55.4,48,54.8,48.6z"/>
	<path class="st0" d="M49.6,51.4l3.9,9.3l2.3-1l-3.9-9.4C51.2,50.8,50.4,51.2,49.6,51.4z"/>
	<path class="st0" d="M58.4,43.9l9.4,3.9l1-2.3l-9.3-3.9C59.2,42.4,58.8,43.2,58.4,43.9z"/>
	<path class="st0" d="M34.2,59.8l2.3,1l3.9-9.3c-0.8-0.3-1.6-0.6-2.3-1L34.2,59.8z"/>
	<path class="st0" d="M33.4,46.8l-7.2,7.2l1.8,1.8l7.2-7.2C34.6,48,34,47.4,33.4,46.8z"/>
	<path class="st0" d="M43.7,52.1v10.1h2.5V52.1c-0.4,0-0.8,0.1-1.3,0.1S44.2,52.1,43.7,52.1z"/>
	<path class="st0" d="M30.6,41.6l-9.3,3.9l1,2.3l9.4-3.9C31.2,43.2,30.8,42.4,30.6,41.6z"/>
	<circle class="st0" cx="45" cy="37" r="12.6"/>
</g>
</svg>
