<?xml version="1.0" encoding="utf-8"?>
<!-- Generator: Adobe Illustrator 19.2.1, SVG Export Plug-In . SVG Version: 6.00 Build 0)  -->
<svg version="1.1" id="Layer_1" xmlns="http://www.w3.org/2000/svg" xmlns:xlink="http://www.w3.org/1999/xlink" x="0px" y="0px"
	 viewBox="0 0 90 74" style="enable-background:new 0 0 90 74;" xml:space="preserve">
<style type="text/css">
	.st0{fill:#AE8637;}
</style>
<path class="st0" d="M53.2,52l3-3.3c-3.6-2.1-5.1-4.7-5.1-4.7c2.4,1.6,4.7,2.4,6.8,2.7l9.1-10.3c-3-2-4.2-4.2-4.2-4.2
	c1.9,1.3,3.9,2.1,5.6,2.5l5.2-5.9c7.7-7.7,3.5-16.9,3.5-16.9s-9.2-4.2-16.9,3.5l-5.9,5.2c0.4,1.8,1.2,3.7,2.5,5.6
	c0,0-2.2-1.2-4.2-4.2l-10.3,9.1c0.3,2.1,1.1,4.4,2.7,6.8c0,0-2.6-1.4-4.7-5.1l-3.3,3c-4.4,4.4-5.1,13.9-5.2,18.6
	c-4.4,3.7-11.3,7.6-19.4,5.2l-0.8,2.5c8.8,2.6,16.2-1.1,21-5C36,57.3,48,57.1,53.2,52z M69,19.2l0.9,0.9l-30,30l-0.9-0.9L69,19.2z"
	/>
</svg>
