<svg id="Layer_1" data-name="Layer 1" xmlns="http://www.w3.org/2000/svg" viewBox="0 0 90 74"><defs><style>.cls-1{fill:#ae8637;}</style></defs><title>all-icons</title><rect class="cls-1" x="21.98" y="48.8" width="45.72" height="3.07"/><rect class="cls-1" x="21.98" y="22.13" width="45.72" height="3.07"/><polygon class="cls-1" points="27.1 31.32 25.01 31.32 21.98 42.15 24.06 42.15 27.1 31.32"/><polygon class="cls-1" points="27.1 42.15 29.18 42.15 32.21 31.32 30.13 31.32 27.1 42.15"/><polygon class="cls-1" points="37.33 31.32 35.24 31.32 32.21 42.15 34.29 42.15 37.33 31.32"/><polygon class="cls-1" points="42.44 31.32 40.36 31.32 37.33 42.15 39.41 42.15 42.44 31.32"/><polygon class="cls-1" points="47.56 31.32 45.47 31.32 42.44 42.15 44.52 42.15 47.56 31.32"/><polygon class="cls-1" points="52.67 31.32 50.59 31.32 47.56 42.15 49.64 42.15 52.67 31.32"/><polygon class="cls-1" points="57.79 31.32 55.7 31.32 52.67 42.15 54.75 42.15 57.79 31.32"/><polygon class="cls-1" points="62.9 31.32 60.82 31.32 57.79 42.15 59.87 42.15 62.9 31.32"/><polygon class="cls-1" points="68.02 31.32 65.94 31.32 62.9 42.15 64.98 42.15 68.02 31.32"/></svg>