<svg id="Layer_1" data-name="Layer 1" xmlns="http://www.w3.org/2000/svg" viewBox="0 0 90 74"><defs><style>.cls-1{fill:none;stroke:#ae8637;stroke-miterlimit:10;stroke-width:3px;}</style></defs><title>all-icons</title><path class="cls-1" d="M47.8,29.36a13.2,13.2,0,0,1,18.67,0"/><path class="cls-1" d="M41.57,29.62a13.2,13.2,0,0,1,13.2-13.2"/><path class="cls-1" d="M37.36,34.2a13.2,13.2,0,0,1,0-18.67"/><path class="cls-1" d="M37.62,40.43a13.2,13.2,0,0,1-13.2-13.2"/><path class="cls-1" d="M42.2,44.64a13.2,13.2,0,0,1-18.67,0"/><path class="cls-1" d="M48.43,44.38a13.2,13.2,0,0,1-13.2,13.2"/><path class="cls-1" d="M52.64,39.8a13.2,13.2,0,0,1,0,18.67"/><path class="cls-1" d="M52.38,33.57a13.2,13.2,0,0,1,13.2,13.2"/></svg>