<?xml version="1.0" encoding="utf-8"?>
<!-- Generator: Adobe Illustrator 19.0.0, SVG Export Plug-In . SVG Version: 6.00 Build 0)  -->
<svg version="1.0" id="Layer_1" xmlns="http://www.w3.org/2000/svg" xmlns:xlink="http://www.w3.org/1999/xlink" x="0px" y="0px"
	 viewBox="0 0 82 51" enable-background="new 0 0 82 51" xml:space="preserve">
<g id="XMLID_132_">
	<path id="XMLID_133_" fill-rule="evenodd" clip-rule="evenodd" fill="#F1F2F2" d="M80.7,7c-0.3,0-0.4,0.2-0.5,0
		c0.1-0.3-0.1-0.3-0.1-0.6c-0.2,0-0.5,0-0.6-0.1c-0.1-1-0.5-1.7-0.7-2.6c-0.4,0-0.5-0.2-0.8-0.3c-0.2,0.2-0.4,0.4-0.7,0.5
		c-0.3,0-0.1-0.4-0.5-0.4c-0.4,0.9-1,2.2-0.5,3.3c-0.2,0.4-0.5,0.7-0.5,1.4c-0.3-0.1-0.4,0.2-0.6,0c-0.1,0.3-0.1,0.7-0.4,0.7
		c-0.9,0.2-2,0.6-3,0.8c-0.5,0.1-1,0-1.4,0.3c-0.4,0.3-0.6,0.9-0.9,1.4c-0.2,0.3-0.7,0.3-0.5,0.8c0.4,0.1,0.3,0.6,0.4,0.9
		c-0.8,1.2-2.4,0.6-3.8,1.3c0,0.4,0.3,0.6,0.5,0.9c-1.2,1.6-2.8,2.6-4.7,3.5c-0.3-0.4-1.2-0.1-1.4-0.6c0.5-0.4,0.4-1.7,1.1-1.6
		c-0.1-1.2-0.2-2.3-1-2.8c-0.6,0.1-0.5,0.8-1,1c-0.4,0.1-0.3-0.3-0.3-0.6c1-0.3,0.3-1.9,0.5-2.3c-0.2,0-0.2-0.2-0.3-0.4
		c-1,0-1.8-1.1-2.3-0.1c-0.1,0.3,0.3,0.1,0.3,0.4c-0.3-0.1-0.4,0.1-0.5,0.2c-0.1,0.5,0.2,0.9-0.3,1c-0.1-0.4,0.4-0.8,0-0.9
		c-0.8,0.9-0.9,1.9-1,3.4c1,1,0.7,3.4-0.6,3.8c-1.9-1.7-0.8-5.2-0.4-7.1c-0.4,0.4-0.7,1.4-1.2,1.4c0.3-0.9,0.9-1.5,1.1-2.4
		c0.8,0.2,1.2-0.4,2.2-0.6c0.8,0.1,1.5,0,2.1-0.1c-0.4-0.1-0.5-0.4-0.5-1c-0.5,0-0.8,0.4-1.3,0.2c0-0.2,0-0.4,0-0.5
		c-1.3,0.1-2,1-3.2,0.8c-0.2-0.7-1.2-0.9-1.4-0.5c0.1-0.6,0.6-0.8,0.9-1.3c-0.9,0-1.2,0.6-1.6,1.1c-0.6,0.3-1.3,0.6-1.9,1
		c-0.1-0.3-0.5,0-0.6-0.2c0.1-0.2,0.3-0.3,0.3-0.5c-0.5-0.2-1.1,0.7-1.7,0.4C48.1,9.3,48.3,8.5,49,8c0.5-0.4,1.2-0.3,1.6-0.9
		c-0.5-0.1-1.4,0-1.7-0.4c-0.5,0.5-1.4,0.4-1.5-0.2c-0.8,0.2-1.4-0.9-2.2-0.2C44.8,6.3,44.5,6,44,6.1c-0.4-0.3,0-1.3-0.7-1.3
		c-0.2,0.1,0,0.6-0.2,0.7C29.8,5.8,18.5,3.5,8.3,0.8c0.4,0.7,0,1.5,0.2,2C8.1,2.5,8.3,2.2,8.3,1.9C8,1.9,8.1,2.3,7.8,2.3
		C6.9,2.1,6.4,1.5,5.6,1.2C5.6,2,5.5,3.4,5.9,4.1c-0.2,0-0.3,0-0.4,0.1C5.5,4.5,5.8,4.4,5.7,4.7C5.4,4.9,5.2,5.4,5.6,5.6
		C5.4,5.5,5.5,5.8,5.3,5.9c-0.6,2-1.4,4-2.5,5.5c0,0.5-0.1,0.9-0.2,1.4c0.5,1.4-0.7,2.5-1.1,3.5c1,0.6,0.1,1.8,0.2,2.7
		c0,0.4,0.7,0.9,0.7,1.5c0,0.6,0.1,0.7,0.5,1.1c-0.5,0.8,0,1.8,0.5,2.1c0,0.3-0.4,0.3-0.5,0.6c0,1.2,1.2,2.1,1.3,3.2
		c0,0.5-0.4,0.8-0.1,1.3c1.6,0,1.7,1.3,2.9,1.7c0.1,0.3-0.2,0.3,0,0.5c1,0.2,1.4,1.2,1.4,2.5c1.1,0.4,2.6,0.4,3.9,0.6
		c0,0.2-0.2,0.1-0.2,0.4c1.4,0.7,2.7,1.7,4.1,2.4c1.7,1,3.7,1.2,6.2,1.5c0-0.3,0-0.7,0.2-0.9c0.9,0.1,1.7,0.3,2.7,0.4
		c0.6,0.8,1.1,1.7,2.1,2.2c0.5,0.5,0.3,1.1,0.5,1.9c0.3,1,1.5,1.2,2.3,1.8c0.6-0.4,0.6-1.5,1.5-1.6c1.9,0.2,2.8,1.4,3.2,3.2
		c0.6,0.3,0.8,1.2,1.4,1.5c-0.4,2.3,2.2,2.8,3.7,3.2c-0.3-1.2-0.2-2.4-0.1-3.7c1.5-1,3.4-1.7,4.6-3.1c1.3-1.1,3.5-0.3,4.9-0.3
		c-0.1-0.5-0.6,0-0.7-0.4c0.6-0.5,1,0.4,1.5,0.5c0,0.2-0.1,0.2-0.1,0.4c0.3,0.1,0.6,0.3,1,0.4c0.2-0.2,0.3-0.4,0.7-0.5
		c0.3,0.2-0.2,0.4,0,0.5c0.7-0.2,0.2-0.7,0.7-0.9c0.1,0.4,1.3,1,1.4,0.4c-0.3-0.3-1-0.2-1.2-0.6c0.3-0.2,0.6-0.3,0.5-1
		c-0.4,0-0.2,0.5-0.7,0.4c0.4-1.1,1.3-0.9,2.6-1c0.2-0.2,0-0.6,0.4-0.6c0.2,0.1,0.4,0.7,0.1,0.8c1.5-0.5,3.7-0.9,4.4,0.5
		c0.8-0.1,1.5-0.4,1.6-0.9c1.5-0.2,1.4,1.3,2.7,1.4c0.8,0.6-0.1,2.3,0.6,2.9c0.2-0.3-0.1-0.6,0-0.6c0.1,0,0.3,0,0.4,0.1
		c0,0.4-0.3,0.4-0.4,0.8c0.5,0.5,0.8,1.1,1.2,1.8c0.3,0.1,0.2-0.1,0.5-0.1c0.2,0.3,0.3,0.7,0.5,1c0.8-0.2,1.1,0.7,1.4,1.4
		c0.3-0.1,0.9-0.4,1.2-0.4c-0.1,0.5-1,0.8-1,1.2c0.6-0.5,1.2-1,1.4-1.9c-0.3-0.1-0.1,0.3-0.3,0.3c0.7-2.4-0.6-4-1.4-5.4
		c0-0.2,0.2-0.1,0.2-0.4c-1.4-1.2-2.8-3.7-2-6c0.2-0.6,0.8-0.9,0.8-1.4c0.9-0.3,1.1-1.2,1.8-1.6c-0.1-1.2,0.6-1.7,1.6-1.8
		c-0.1-1.8,2.2-1.4,2.3-2.6c-0.1,0.2-0.8,0.3-0.9,0c0.4,0.3,0.6-0.5,0.3-0.6c0.6,0.2,1.2-0.1,1.3-0.7c-0.1-0.2-0.5,0.2-0.7-0.1
		c0.3,0,0.5-0.1,0.6-0.3l0-0.1l0.1,0c-0.4-0.6-0.7-1.2-1-1.9c-0.2,0-0.4,0-0.6,0c0.4-0.3-0.4-0.6-0.2-0.9c0.1,0,0.1,0.1,0.2,0.1
		c-0.1-0.7-0.3-1.2-0.7-1.4c0.2,0.1,0.2-0.2,0.3-0.3c-0.6-0.4-0.7-2.1-0.1-2.2c-0.4,0.4,0.3,0.8-0.2,1.3c0.4,0,0.1,0.1,0.2,0.6
		c0.5,0,0.4,0.6,0.7,0.8c0.1-0.3-0.3-0.5-0.1-0.6c0.9,0.3-0.2,1.6,0.5,2.2c0.2-1.2,1-2.3,0.5-3.5c-0.6-0.2-0.7-0.9-1.1-1.4
		c0.2,0.4,0.6,0.6,1.2,0.6c0,0.2-0.2,0.2-0.1,0.5c0.7-0.6,1.2-1.8,0.9-3.2c-0.1-0.2-0.3,0.2-0.5-0.1c0.2,0,0.2-0.2,0.4-0.3l0-0.2
		l0.1-0.2c0.6-1.3,2.5-1.4,3.6-2.2c0.1-0.3,0-0.5,0.4-0.5c0.1,0.3,0,0.5-0.2,0.5c0.4-0.2,0.6-0.7,1.2-0.7c0-0.5-0.1-0.8-0.6-0.8
		c0,0.3,0.5,0.2,0.5,0.5c-0.8,0.7-0.9-0.8-1.5-0.6c0.1-0.8,0-1.9,0.4-3.1c0.5,0.1,0.8-0.5,1.3-0.7c0.1-0.3-0.1-0.9,0-0.9
		c0.1,0.1,0.4,0.1,0.4,0.4c-0.2,0.1-0.3,0.1-0.2,0.5c0.5-0.1,0.2-0.7,0.5-1c0,0.2,0,0.5,0.3,0.4c0.2-0.5-0.1-0.3-0.2-0.5
		C80.2,9,81.6,7.6,80.7,7z"/>
</g>
</svg>
