<?xml version="1.0" encoding="utf-8"?>
<!-- Generator: Adobe Illustrator 19.1.0, SVG Export Plug-In . SVG Version: 6.00 Build 0)  -->
<svg version="1.1" xmlns="http://www.w3.org/2000/svg" xmlns:xlink="http://www.w3.org/1999/xlink" x="0px" y="0px"
	 viewBox="0 0 60 60" style="enable-background:new 0 0 60 60;" xml:space="preserve">
<style type="text/css">
	.st0{fill:none;stroke:#AAAAAA;stroke-linejoin:round;stroke-miterlimit:10;}
	.st1{fill:none;stroke:#FF0000;}
	.st2{fill-rule:evenodd;clip-rule:evenodd;fill:#FF0000;}
	.st3{fill:#FFFFFF;}
	.st4{fill:#AAAAAA;}
	.st5{fill-rule:evenodd;clip-rule:evenodd;fill:#555555;}
	.st6{fill-rule:evenodd;clip-rule:evenodd;fill:none;stroke:#555555;stroke-miterlimit:10;}
	.st7{fill:#17C8FF;}
	.st8{fill:none;stroke:#17C8FF;stroke-miterlimit:10;}
	.st9{fill:none;stroke:#AAAAAA;stroke-miterlimit:10;}
	.st10{fill:#AAAAAA;stroke:#FFFFFF;stroke-miterlimit:14;}
	.st11{fill-rule:evenodd;clip-rule:evenodd;fill:none;stroke:#555555;stroke-width:1.4586;stroke-miterlimit:10;}
	.st12{fill:none;stroke:#555555;stroke-width:1.4586;stroke-miterlimit:10;}
	.st13{fill:none;stroke:#555555;stroke-miterlimit:10;}
	.st14{fill:none;stroke:#17C8FF;stroke-width:1.274;stroke-miterlimit:10;}
	.st15{fill:none;stroke:#17C8FF;stroke-width:1.3845;stroke-miterlimit:10;}
	.st16{fill:none;stroke:#AAAAAA;stroke-width:1.3937;stroke-miterlimit:10;}
	.st17{fill:none;stroke:#17C8FF;stroke-width:1.3937;stroke-miterlimit:10;}
	.st18{fill:#555555;}
	.st19{fill:#FF8D00;}
	.st20{fill:none;stroke:#FFCF00;stroke-miterlimit:10;}
	.st21{fill:none;stroke:#FFFFFF;stroke-width:1.3213;stroke-miterlimit:10;}
	.st22{fill:none;}
	.st23{clip-path:url(#SVGID_4_);}
	.st24{fill:none;stroke:#FFFFFF;stroke-width:0.885;stroke-miterlimit:10;}
	.st25{clip-path:url(#SVGID_6_);}
	.st26{fill:none;stroke:#555555;}
	.st27{fill:none;stroke:#17C8FF;}
	.st28{fill:#FF0000;}
	.st29{fill:none;stroke:#231F20;stroke-miterlimit:10;}
	.st30{fill:#FFCF00;stroke:#FFCF00;stroke-miterlimit:10;}
	.st31{fill:#FFCF00;}
	.st32{display:none;}
	.st33{display:inline;}
	.st34{fill:#FF7950;}
	.st35{display:inline;fill:#FF00FF;}
	.st36{fill:#FF00FF;}
	.st37{display:inline;fill:none;stroke:#FF00FF;stroke-miterlimit:10;}
	.st38{fill:none;stroke:#FF7950;stroke-miterlimit:10;}
	.st39{display:inline;fill-rule:evenodd;clip-rule:evenodd;fill:none;stroke:#FF00FF;stroke-miterlimit:10;}
	.st40{fill:none;stroke:#FF00FF;stroke-width:0.9554;stroke-miterlimit:10;}
	.st41{fill:none;stroke:#FF00FF;stroke-width:0.9554;stroke-miterlimit:10;stroke-dasharray:1.9094,1.9094;}
	.st42{fill:none;stroke:#FF00FF;stroke-width:0.9554;stroke-miterlimit:10;stroke-dasharray:1.848,1.848;}
	.st43{fill:none;stroke:#FF00FF;stroke-width:0.905;stroke-miterlimit:10;}
	.st44{fill:none;stroke:#FF00FF;stroke-width:0.905;stroke-miterlimit:10;stroke-dasharray:1.7098,1.7098;}
	.st45{fill:none;stroke:#FF00FF;stroke-width:0.905;stroke-miterlimit:10;stroke-dasharray:1.6887,1.6887;}
	.st46{fill:none;stroke:#FF00FF;stroke-width:0.9472;stroke-miterlimit:10;}
	.st47{fill:none;stroke:#FF00FF;stroke-width:0.9472;stroke-miterlimit:10;stroke-dasharray:1.9322,1.9322;}
	.st48{fill:none;stroke:#FF00FF;stroke-width:0.9472;stroke-miterlimit:10;stroke-dasharray:1.9477,1.9477;}
	.st49{fill:none;stroke:#FF00FF;stroke-width:0.9637;stroke-miterlimit:10;}
	.st50{fill:none;stroke:#FF00FF;stroke-width:0.9637;stroke-miterlimit:10;stroke-dasharray:1.9581,1.9581;}
	.st51{fill:none;stroke:#FF00FF;stroke-width:0.9637;stroke-miterlimit:10;stroke-dasharray:1.8671,1.8671;}
	.st52{fill:none;stroke:#FF00FF;stroke-miterlimit:10;}
	.st53{fill:none;stroke:#FF00FF;stroke-miterlimit:10;stroke-dasharray:2.0018,2.0018;}
	.st54{fill:none;stroke:#FF00FF;stroke-miterlimit:10;stroke-dasharray:2.0037,2.0037;}
	.st55{fill:none;stroke:#FF00FF;stroke-miterlimit:10;stroke-dasharray:2.0124,2.0124;}
	.st56{fill:none;stroke:#FF00FF;stroke-miterlimit:10;stroke-dasharray:2.0615,2.0615;}
	.st57{fill:none;stroke:#FF00FF;stroke-miterlimit:10;stroke-dasharray:2.0088,2.0088;}
	.st58{fill:none;stroke:#FF00FF;stroke-miterlimit:10;stroke-dasharray:1.9127,1.9127;}
	.st59{fill:none;stroke:#FF00FF;stroke-miterlimit:10;stroke-dasharray:1.9674,1.9674;}
	.st60{fill:none;stroke:#FF00FF;stroke-miterlimit:10;stroke-dasharray:2.0152,2.0152;}
</style>
<g id="images">
</g>
<g id="graphic">
	<g>
		<g>
			<g>
				<g>
					<path class="st7" d="M51.2,39v2.7h-6.8v-6.5c0-1.2-0.1-2.4-0.4-3.5C48,31.8,51.2,35.1,51.2,39z"/>
					<path class="st7" d="M45.2,33c2.8,0.6,5,3.1,5,6.1v1.7h-4.8v-5.5C45.4,34.5,45.4,33.7,45.2,33 M44,31.8
						c0.2,1.1,0.4,2.3,0.4,3.5v6.5h6.8V39C51.2,35.1,48,31.8,44,31.8L44,31.8z"/>
				</g>
				<path class="st7" d="M42.6,31.8c-1.6-7.8-8.5-13.6-16.7-13.6c-9.4,0-17.1,7.6-17.1,17.1v6.5h13.3v-5.7c0,0,0-0.3,0-0.4
					c0-2.1,1.7-3.8,3.8-3.8c2.1,0,3.8,1.7,3.8,3.8c0,0.1,0,0.4,0,0.4v5.7h13.3v-6.5C42.9,34.1,42.8,33,42.6,31.8z"/>
			</g>
			<g>
				<path class="st7" d="M42.6,31.8c-1.6-7.8-8.5-13.6-16.7-13.6c-9.4,0-17.1,7.6-17.1,17.1v6.5h13.3v-5.7c0,0,0-0.3,0-0.4
					c0-2.1,1.7-3.8,3.8-3.8c2.1,0,3.8,1.7,3.8,3.8c0,0.1,0,0.4,0,0.4v5.7h13.3v-6.5C42.9,34.1,42.8,33,42.6,31.8z"/>
			</g>
		</g>
	</g>
	<g>
		<g>
			<defs>
				<path id="SVGID_1_" d="M51.2,39v2.7h-6.8v-6.5c0-1.2-0.1-2.4-0.4-3.5C48,31.8,51.2,35.1,51.2,39z"/>
			</defs>
			<clipPath id="SVGID_2_">
				<use xlink:href="#SVGID_1_"  style="overflow:visible;"/>
			</clipPath>
		</g>
		<g>
			<path class="st22" d="M51.2,39v2.7h-6.8v-6.5c0-1.2-0.1-2.4-0.4-3.5C48,31.8,51.2,35.1,51.2,39z"/>
		</g>
		<g>
			<path class="st22" d="M51.2,39v2.7h-6.8v-6.5c0-1.2-0.1-2.4-0.4-3.5C48,31.8,51.2,35.1,51.2,39z"/>
		</g>
		<g>
			<path class="st22" d="M51.2,39v2.7h-6.8v-6.5c0-1.2-0.1-2.4-0.4-3.5C48,31.8,51.2,35.1,51.2,39z"/>
		</g>
		<g>
			<defs>
				<path id="SVGID_3_" d="M42.6,31.8c-1.6-7.8-8.5-13.6-16.7-13.6c-9.4,0-17.1,7.6-17.1,17.1v6.5h13.3v-5.7c0,0,0-0.3,0-0.4
					c0-2.1,1.7-3.8,3.8-3.8c2.1,0,3.8,1.7,3.8,3.8c0,0.1,0,0.4,0,0.4v5.7h13.3v-6.5C42.9,34.1,42.8,33,42.6,31.8z"/>
			</defs>
			<clipPath id="SVGID_4_">
				<use xlink:href="#SVGID_3_"  style="overflow:visible;"/>
			</clipPath>
			<g class="st23">
				<line class="st24" x1="4.8" y1="23.2" x2="49" y2="23.2"/>
				<line class="st24" x1="4.8" y1="30" x2="49" y2="30"/>
				<line class="st24" x1="4.8" y1="36.8" x2="49" y2="36.8"/>
			</g>
		</g>
		<g>
			<defs>
				<path id="SVGID_5_" d="M51.2,39v2.7h-6.8v-6.5c0-1.2-0.1-2.4-0.4-3.5C48,31.8,51.2,35.1,51.2,39z"/>
			</defs>
			<clipPath id="SVGID_6_">
				<use xlink:href="#SVGID_5_"  style="overflow:visible;"/>
			</clipPath>
			<g class="st25">
				<line class="st24" x1="44" y1="23.2" x2="53.5" y2="23.2"/>
				<line class="st24" x1="44" y1="30" x2="53.5" y2="30"/>
				<line class="st24" x1="44" y1="36.8" x2="53.5" y2="36.8"/>
			</g>
		</g>
	</g>
</g>
<g id="button">
</g>
<g id="text">
</g>
<g id="guide">
</g>
<g id="SPEC" class="st32">
</g>
<g id="Isolation_Mode">
</g>
</svg>
