<?xml version="1.0" encoding="utf-8"?>
<!-- Generator: Adobe Illustrator 16.0.0, SVG Export Plug-In . SVG Version: 6.00 Build 0)  -->
<!DOCTYPE svg PUBLIC "-//W3C//DTD SVG 1.1//EN" "http://www.w3.org/Graphics/SVG/1.1/DTD/svg11.dtd">
<svg version="1.1" xmlns="http://www.w3.org/2000/svg" xmlns:xlink="http://www.w3.org/1999/xlink" x="0px" y="0px" width="44px"
	 height="44px" viewBox="0 0 44 44" enable-background="new 0 0 44 44" xml:space="preserve">
<g id="Layer_1" display="none">
	<polygon display="inline" fill="#AE8637" points="28.966,18.376 27.692,19.65 29.497,21.455 22.257,21.455 22.257,14.214 
		24.061,16.02 25.335,14.746 21.356,10.767 17.377,14.746 18.651,16.02 20.455,14.214 20.455,21.455 13.214,21.455 15.02,19.65 
		13.745,18.376 9.767,22.356 13.745,26.335 15.02,25.063 13.214,23.257 20.455,23.257 20.455,30.497 18.651,28.693 17.377,29.966 
		21.356,33.945 25.335,29.966 24.061,28.693 22.257,30.497 22.257,23.257 29.497,23.257 27.692,25.063 28.966,26.335 32.944,22.356 
			"/>
</g>
<g id="Layer_2" display="none">
	<g display="inline">
		<defs>
			<rect id="SVGID_1_" x="-1" y="3" width="47" height="38.645"/>
		</defs>
		<clipPath id="SVGID_2_">
			<use xlink:href="#SVGID_1_"  overflow="visible"/>
		</clipPath>
		<path clip-path="url(#SVGID_2_)" fill="#AE8637" d="M34.25,22.028h-4.501c-0.153-3.77-3.186-6.802-6.955-6.954v-4.502h-0.587
			v4.502c-3.771,0.152-6.802,3.184-6.955,6.954H10.75v0.588h4.502c0.152,3.77,3.185,6.803,6.955,6.955v4.501h0.587v-4.501
			c3.771-0.152,6.804-3.186,6.955-6.955h4.501V22.028z M28.573,22.028h-4.274c-0.125-0.771-0.732-1.379-1.505-1.506V16.25
			C25.916,16.399,28.424,18.906,28.573,22.028 M22.207,16.25v4.273c-0.771,0.127-1.379,0.734-1.506,1.506h-4.274
			C16.578,18.906,19.084,16.399,22.207,16.25 M16.427,22.616h4.274c0.126,0.771,0.735,1.38,1.506,1.505v4.274
			C19.084,28.246,16.578,25.738,16.427,22.616 M22.794,28.396v-4.274c0.772-0.125,1.38-0.734,1.505-1.505h4.274
			C28.424,25.738,25.916,28.246,22.794,28.396"/>
	</g>
</g>
<g id="Layer_3" display="none">
	<g display="inline">
		<defs>
			<rect id="SVGID_3_" x="-2" y="2" width="49.335" height="40.564"/>
		</defs>
		<clipPath id="SVGID_4_">
			<use xlink:href="#SVGID_3_"  overflow="visible"/>
		</clipPath>
		<path clip-path="url(#SVGID_4_)" fill="#AE8637" d="M31.574,29.374c-0.606,0-1.154,0.235-1.572,0.611l-5.355-4.583
			c0.242-0.371,0.385-0.813,0.385-1.287c0-1.201-0.896-2.182-2.056-2.334v-6.623c1.159-0.152,2.056-1.132,2.056-2.332
			c0-1.307-1.059-2.364-2.364-2.364c-1.305,0-2.363,1.058-2.363,2.364c0,1.2,0.897,2.18,2.056,2.332v6.623
			c-1.158,0.152-2.056,1.133-2.056,2.334c0,0.475,0.144,0.916,0.385,1.287l-5.355,4.583c-0.419-0.376-0.967-0.611-1.574-0.611
			c-1.306,0-2.364,1.058-2.364,2.363s1.058,2.364,2.364,2.364s2.364-1.059,2.364-2.364c0-0.476-0.144-0.917-0.386-1.286l5.355-4.584
			c0.419,0.376,0.967,0.611,1.573,0.611c0.607,0,1.155-0.235,1.573-0.611l5.355,4.583c-0.242,0.37-0.385,0.812-0.385,1.287
			c0,1.306,1.059,2.364,2.363,2.364c1.307,0,2.364-1.059,2.364-2.364S32.881,29.374,31.574,29.374"/>
	</g>
</g>
<g id="Layer_4">
</g>
<g id="Layer_5">
	<path fill="none" stroke="#AE8637" stroke-width="3" stroke-miterlimit="10" d="M32.1,12.556c1.991,1.991,3.224,4.743,3.224,7.784
		c0,3.04-1.232,5.792-3.224,7.782c-1.991,1.993-4.743,3.226-7.783,3.226H10.192"/>
	<path fill="none" stroke="#AE8637" stroke-width="3" stroke-miterlimit="10" d="M29.254,15.469c1.264,1.263,2.045,3.01,2.045,4.938
		c0,1.927-0.781,3.673-2.045,4.937c-1.264,1.265-3.009,2.046-4.938,2.046H10.192"/>
	<path fill="none" stroke="#AE8637" stroke-width="3" stroke-miterlimit="10" d="M26.41,18.38c0.534,0.537,0.866,1.276,0.866,2.094
		s-0.332,1.557-0.866,2.091c-0.537,0.537-1.277,0.866-2.094,0.866H10.192"/>
</g>
</svg>
