<?xml version="1.0" encoding="utf-8"?>
<!-- Generator: Adobe Illustrator 16.0.0, SVG Export Plug-In . SVG Version: 6.00 Build 0)  -->
<!DOCTYPE svg PUBLIC "-//W3C//DTD SVG 1.1//EN" "http://www.w3.org/Graphics/SVG/1.1/DTD/svg11.dtd">
<svg version="1.1" xmlns="http://www.w3.org/2000/svg" xmlns:xlink="http://www.w3.org/1999/xlink" x="0px" y="0px" width="44px"
	 height="44px" viewBox="0 0 44 44" enable-background="new 0 0 44 44" xml:space="preserve">
<g id="Layer_1" display="none">
	<polygon display="inline" fill="#AE8637" points="29.966,18.376 28.692,19.65 30.497,21.455 23.257,21.455 23.257,14.214 
		25.061,16.02 26.335,14.746 22.356,10.767 18.377,14.746 19.651,16.02 21.455,14.214 21.455,21.455 14.214,21.455 16.02,19.65 
		14.745,18.376 10.767,22.356 14.745,26.335 16.02,25.063 14.214,23.257 21.455,23.257 21.455,30.497 19.651,28.693 18.377,29.966 
		22.356,33.945 26.335,29.966 25.061,28.693 23.257,30.497 23.257,23.257 30.497,23.257 28.692,25.063 29.966,26.335 33.944,22.356 
			"/>
</g>
<g id="Layer_2">
	<g>
		<defs>
			<rect id="SVGID_1_" x="-0.088" y="4" width="44.088" height="36.25"/>
		</defs>
		<clipPath id="SVGID_2_">
			<use xlink:href="#SVGID_1_"  overflow="visible"/>
		</clipPath>
		<path clip-path="url(#SVGID_2_)" fill="#AE8637" d="M32.934,26.625c-0.134-1.105-0.998-1.87-2.318-2.051
			c-0.346-0.048-0.71-0.071-1.085-0.071c-2.339,0-4.49,0.896-6.991,1.771c-2.336,0.817-4.975,1.782-7.022,1.889
			c-1.397,0.07-2.806-0.387-4.049-1.276c0.981,1.548,2.217,2.241,4.008,2.228c2.432-0.016,5.956-1.36,8.464-2.185
			c2.987-0.981,5.129-1.642,6.616-1.342c0.794,0.16,1.318,0.673,1.569,1.285c0.222,0.536,0.21,1.176-0.035,1.906
			C32.702,28.229,33.031,27.435,32.934,26.625"/>
		<path clip-path="url(#SVGID_2_)" fill="#AE8637" d="M29.343,26.414c-1.123-0.002-2.708,0.539-4.723,1.19
			c-2.566,0.828-6.382,2.171-9.031,2.484c0.128,0.009,0.521,0.35,1.653,0.35c2.236,0,7.548-2.021,10.196-2.834
			c1.698-0.524,2.6-0.497,3.055,0.15c0.51,0.727-0.025,1.551-0.623,1.765c0.704,0.05,1.362-0.414,1.519-1.065
			c0.117-0.492,0.03-0.938-0.249-1.294C30.765,26.687,30.269,26.414,29.343,26.414"/>
		<path clip-path="url(#SVGID_2_)" fill="#AE8637" d="M13.116,26.657c0.766,0.324,1.568,0.484,2.369,0.443
			c1.951-0.103,4.113-0.859,6.404-1.661c2.552-0.896,5.191-1.821,7.642-1.821c0.403,0,0.799,0.027,1.172,0.079
			c0.529,0.071,0.967,0.221,1.336,0.42c0.333-0.595,0.527-1.201,0.527-1.744c0-0.035-0.01-0.068-0.017-0.102
			c0.009-0.118,0.017-0.238,0.017-0.358c0-2.443-1.979-4.424-4.423-4.424c-0.228,0-0.451,0.023-0.669,0.056
			c-0.889-2.188-3.031-3.733-5.539-3.733c-2.993,0-5.467,2.207-5.899,5.083c-0.285-0.062-0.577-0.096-0.879-0.096
			c-2.315,0-4.194,1.878-4.194,4.194C10.962,24.57,11.832,25.939,13.116,26.657"/>
	</g>
</g>
</svg>
