<?xml version="1.0" encoding="utf-8"?>
<!-- Generator: Adobe Illustrator 16.0.0, SVG Export Plug-In . SVG Version: 6.00 Build 0)  -->
<!DOCTYPE svg PUBLIC "-//W3C//DTD SVG 1.1//EN" "http://www.w3.org/Graphics/SVG/1.1/DTD/svg11.dtd">
<svg version="1.1" id="Layer_1" xmlns="http://www.w3.org/2000/svg" xmlns:xlink="http://www.w3.org/1999/xlink" x="0px" y="0px"
	 width="34px" height="34px" viewBox="0 0 34 34" enable-background="new 0 0 34 34" xml:space="preserve">
<polygon fill="#AE8637" points="28.245,11.008 26.401,12.85 29.013,15.461 18.538,15.461 18.538,4.988 21.149,7.599 22.993,5.756 
	17.236,0 11.48,5.756 13.324,7.599 15.935,4.988 15.935,15.461 5.46,15.461 8.07,12.85 6.226,11.008 0.472,16.766 6.226,22.521 
	8.07,20.679 5.46,18.067 15.935,18.067 15.935,28.541 13.324,25.931 11.48,27.773 17.236,33.529 22.993,27.773 21.149,25.931 
	18.538,28.541 18.538,18.067 29.013,18.067 26.401,20.679 28.245,22.521 34,16.766 "/>
</svg>
