<?xml version="1.0" encoding="utf-8"?>
<!-- Generator: Adobe Illustrator 16.0.0, SVG Export Plug-In . SVG Version: 6.00 Build 0)  -->
<!DOCTYPE svg PUBLIC "-//W3C//DTD SVG 1.1//EN" "http://www.w3.org/Graphics/SVG/1.1/DTD/svg11.dtd">
<svg version="1.1" id="Layer_1" xmlns="http://www.w3.org/2000/svg" xmlns:xlink="http://www.w3.org/1999/xlink" x="0px" y="0px"
	 width="34px" height="34px" viewBox="0 0 34 34" enable-background="new 0 0 34 34" xml:space="preserve">
<g>
	<defs>
		<rect id="SVGID_1_" x="-16.007" y="-10.083" width="65.879" height="54.167"/>
	</defs>
	<clipPath id="SVGID_2_">
		<use xlink:href="#SVGID_1_"  overflow="visible"/>
	</clipPath>
	<path clip-path="url(#SVGID_2_)" fill="#AE8637" d="M23.793,21.348c1.892,0,3.421-1.536,3.421-3.43s-3.421-6.739-3.421-6.739
		s-3.432,4.846-3.432,6.739S21.896,21.348,23.793,21.348"/>
	<path clip-path="url(#SVGID_2_)" fill="#AE8637" d="M16.937,10.995c1.892,0,3.425-1.532,3.425-3.428
		c0-1.893-3.425-6.741-3.425-6.741s-3.428,4.849-3.428,6.741C13.509,9.463,15.042,10.995,16.937,10.995"/>
	<path clip-path="url(#SVGID_2_)" fill="#AE8637" d="M10.082,21.348c1.892,0,3.422-1.536,3.422-3.43s-3.422-6.739-3.422-6.739
		s-3.431,4.846-3.431,6.739S8.187,21.348,10.082,21.348"/>
	<rect x="2.402" y="30.24" clip-path="url(#SVGID_2_)" fill="#AE8637" width="29.061" height="2.934"/>
</g>
</svg>
