<?xml version="1.0" encoding="utf-8"?>
<!-- Generator: Adobe Illustrator 16.0.0, SVG Export Plug-In . SVG Version: 6.00 Build 0)  -->
<!DOCTYPE svg PUBLIC "-//W3C//DTD SVG 1.1//EN" "http://www.w3.org/Graphics/SVG/1.1/DTD/svg11.dtd">
<svg version="1.1" id="Layer_1" xmlns="http://www.w3.org/2000/svg" xmlns:xlink="http://www.w3.org/1999/xlink" x="0px" y="0px"
	 width="34px" height="34px" viewBox="0 0 34 34" enable-background="new 0 0 34 34" xml:space="preserve">
<g>
	<defs>
		<rect id="SVGID_1_" x="-21" y="-15" width="76.834" height="63.174"/>
	</defs>
	<clipPath id="SVGID_2_">
		<use xlink:href="#SVGID_1_"  overflow="visible"/>
	</clipPath>
	<path clip-path="url(#SVGID_2_)" fill="#AE8637" d="M7.316,29.337c0,1.755-1.423,3.177-3.177,3.177s-3.177-1.422-3.177-3.177
		c0-1.754,1.422-3.177,3.177-3.177S7.316,27.583,7.316,29.337"/>
	<path clip-path="url(#SVGID_2_)" fill="#AE8637" d="M16.167,29.337c0,1.755-1.421,3.177-3.176,3.177
		c-1.755,0-3.178-1.422-3.178-3.177c0-1.754,1.422-3.177,3.178-3.177C14.746,26.16,16.167,27.583,16.167,29.337"/>
	<path clip-path="url(#SVGID_2_)" fill="#AE8637" d="M33.872,29.337c0,1.755-1.424,3.177-3.177,3.177
		c-1.756,0-3.178-1.422-3.178-3.177c0-1.754,1.422-3.177,3.178-3.177C32.448,26.16,33.872,27.583,33.872,29.337"/>
	<path clip-path="url(#SVGID_2_)" fill="#AE8637" d="M7.316,20.838c0,1.753-1.423,3.176-3.177,3.176s-3.177-1.423-3.177-3.176
		c0-1.756,1.422-3.178,3.177-3.178S7.316,19.082,7.316,20.838"/>
	<path clip-path="url(#SVGID_2_)" fill="#AE8637" d="M25.021,20.838c0,1.753-1.423,3.176-3.179,3.176
		c-1.754,0-3.176-1.423-3.176-3.176c0-1.756,1.422-3.178,3.176-3.178C23.598,17.66,25.021,19.082,25.021,20.838"/>
	<path clip-path="url(#SVGID_2_)" fill="#AE8637" d="M33.872,20.838c0,1.753-1.424,3.176-3.177,3.176
		c-1.756,0-3.178-1.423-3.178-3.176c0-1.756,1.422-3.178,3.178-3.178C32.448,17.66,33.872,19.082,33.872,20.838"/>
	<path clip-path="url(#SVGID_2_)" fill="#AE8637" d="M7.316,3.837c0,1.755-1.423,3.177-3.177,3.177S0.962,5.592,0.962,3.837
		c0-1.754,1.422-3.176,3.177-3.176S7.316,2.083,7.316,3.837"/>
	<path clip-path="url(#SVGID_2_)" fill="#AE8637" d="M25.021,3.837c0,1.755-1.423,3.177-3.179,3.177
		c-1.754,0-3.176-1.422-3.176-3.177c0-1.754,1.422-3.176,3.176-3.176C23.598,0.661,25.021,2.083,25.021,3.837"/>
	<path clip-path="url(#SVGID_2_)" fill="#AE8637" d="M33.872,3.837c0,1.755-1.424,3.177-3.177,3.177
		c-1.756,0-3.178-1.422-3.178-3.177c0-1.754,1.422-3.176,3.178-3.176C32.448,0.661,33.872,2.083,33.872,3.837"/>
</g>
</svg>
