<?xml version="1.0" encoding="utf-8"?>
<!-- Generator: Adobe Illustrator 16.0.0, SVG Export Plug-In . SVG Version: 6.00 Build 0)  -->
<!DOCTYPE svg PUBLIC "-//W3C//DTD SVG 1.1//EN" "http://www.w3.org/Graphics/SVG/1.1/DTD/svg11.dtd">
<svg version="1.1" id="Layer_1" xmlns="http://www.w3.org/2000/svg" xmlns:xlink="http://www.w3.org/1999/xlink" x="0px" y="0px"
	 width="34px" height="34px" viewBox="0 0 34 34" enable-background="new 0 0 34 34" xml:space="preserve">
<g>
	<defs>
		<rect id="SVGID_1_" x="-16" y="-11" width="67" height="55.089"/>
	</defs>
	<clipPath id="SVGID_2_">
		<use xlink:href="#SVGID_1_"  overflow="visible"/>
	</clipPath>
	<path clip-path="url(#SVGID_2_)" fill="#AE8637" d="M29.598,26.176c-0.825,0-1.569,0.319-2.139,0.83l-7.271-6.224
		c0.328-0.503,0.522-1.103,0.522-1.749c0-1.631-1.218-2.962-2.791-3.169V6.871c1.573-0.207,2.791-1.538,2.791-3.168
		c0-1.775-1.437-3.21-3.21-3.21c-1.772,0-3.21,1.436-3.21,3.21c0,1.63,1.219,2.961,2.792,3.168v8.993
		c-1.573,0.207-2.792,1.538-2.792,3.169c0,0.646,0.195,1.246,0.524,1.749l-7.273,6.224c-0.569-0.511-1.313-0.83-2.137-0.83
		c-1.773,0-3.21,1.436-3.21,3.21s1.437,3.211,3.21,3.211c1.773,0,3.21-1.437,3.21-3.211c0-0.646-0.195-1.244-0.523-1.747
		l7.272-6.226c0.569,0.511,1.312,0.83,2.137,0.83s1.569-0.319,2.137-0.83l7.273,6.225c-0.329,0.504-0.522,1.103-0.522,1.748
		c0,1.774,1.437,3.211,3.21,3.211c1.772,0,3.21-1.437,3.21-3.211S31.37,26.176,29.598,26.176"/>
</g>
</svg>
