<?xml version="1.0" encoding="utf-8"?>
<!-- Generator: Adobe Illustrator 16.0.0, SVG Export Plug-In . SVG Version: 6.00 Build 0)  -->
<!DOCTYPE svg PUBLIC "-//W3C//DTD SVG 1.1//EN" "http://www.w3.org/Graphics/SVG/1.1/DTD/svg11.dtd">
<svg version="1.1" id="Layer_1" xmlns="http://www.w3.org/2000/svg" xmlns:xlink="http://www.w3.org/1999/xlink" x="0px" y="0px"
	 width="34px" height="34px" viewBox="0 0 34 34" enable-background="new 0 0 34 34" xml:space="preserve">
<g>
	<defs>
		<rect id="SVGID_1_" x="-16" y="-10" width="65.473" height="53.833"/>
	</defs>
	<clipPath id="SVGID_2_">
		<use xlink:href="#SVGID_1_"  overflow="visible"/>
	</clipPath>
	<path clip-path="url(#SVGID_2_)" fill="#AE8637" d="M33.104,16.508h-6.271c-0.211-5.252-4.436-9.476-9.688-9.688V0.548h-0.818V6.82
		c-5.252,0.211-9.477,4.435-9.688,9.688H0.368v0.818H6.64c0.211,5.253,4.436,9.476,9.688,9.688v6.271h0.818v-6.271
		c5.253-0.213,9.477-4.436,9.688-9.688h6.271V16.508z M25.197,16.508h-5.953c-0.176-1.076-1.021-1.922-2.098-2.098V8.457
		C21.496,8.666,24.988,12.159,25.197,16.508 M16.329,8.457v5.953c-1.075,0.176-1.922,1.022-2.097,2.098H8.276
		C8.486,12.159,11.979,8.666,16.329,8.457 M8.276,17.326h5.956c0.174,1.075,1.021,1.921,2.097,2.097v5.953
		C11.978,25.169,8.485,21.676,8.276,17.326 M17.146,25.376v-5.953c1.076-0.176,1.922-1.021,2.098-2.097h5.953
		C24.988,21.676,21.496,25.169,17.146,25.376"/>
</g>
</svg>
