<?xml version="1.0" encoding="utf-8"?>
<!-- Generator: Adobe Illustrator 16.0.0, SVG Export Plug-In . SVG Version: 6.00 Build 0)  -->
<!DOCTYPE svg PUBLIC "-//W3C//DTD SVG 1.1//EN" "http://www.w3.org/Graphics/SVG/1.1/DTD/svg11.dtd">
<svg version="1.1" id="Layer_1" xmlns="http://www.w3.org/2000/svg" xmlns:xlink="http://www.w3.org/1999/xlink" x="0px" y="0px"
	 width="34px" height="34px" viewBox="0 0 34 34" enable-background="new 0 0 34 34" xml:space="preserve">
<g>
	<defs>
		<rect id="SVGID_1_" x="-16" y="-10" width="65.676" height="54"/>
	</defs>
	<clipPath id="SVGID_2_">
		<use xlink:href="#SVGID_1_"  overflow="visible"/>
	</clipPath>
	<path clip-path="url(#SVGID_2_)" fill="#AE8637" d="M10.473,9.475L5.809,4.811l-1.162,1.16l4.665,4.665
		C9.667,10.217,10.054,9.83,10.473,9.475"/>
	<path clip-path="url(#SVGID_2_)" fill="#AE8637" d="M17.658,7.176V0.581h-1.642v6.595c0.272-0.022,0.543-0.042,0.821-0.042
		C17.115,7.134,17.387,7.153,17.658,7.176"/>
	<path clip-path="url(#SVGID_2_)" fill="#AE8637" d="M13.835,7.605l-2.521-6.089L9.796,2.145l2.523,6.094
		C12.804,7.989,13.31,7.773,13.835,7.605"/>
	<path clip-path="url(#SVGID_2_)" fill="#AE8637" d="M8.077,12.482L1.982,9.958l-0.627,1.517l6.088,2.523
		C7.612,13.471,7.827,12.966,8.077,12.482"/>
	<path clip-path="url(#SVGID_2_)" fill="#AE8637" d="M24.362,10.634l4.665-4.664L27.868,4.81L23.2,9.475
		C23.621,9.828,24.008,10.217,24.362,10.634"/>
	<path clip-path="url(#SVGID_2_)" fill="#AE8637" d="M26.231,13.998l6.09-2.522l-0.628-1.517l-6.096,2.525
		C25.848,12.966,26.064,13.471,26.231,13.998"/>
	<path clip-path="url(#SVGID_2_)" fill="#AE8637" d="M6.972,17c0-0.277,0.019-0.55,0.042-0.821H0.419v1.643h6.595
		C6.991,17.549,6.972,17.277,6.972,17"/>
	<path clip-path="url(#SVGID_2_)" fill="#AE8637" d="M23.879,2.145l-1.518-0.628L19.84,7.604c0.526,0.168,1.032,0.383,1.517,0.635
		L23.879,2.145z"/>
	<path clip-path="url(#SVGID_2_)" fill="#AE8637" d="M26.661,16.179c0.022,0.271,0.042,0.544,0.042,0.821s-0.02,0.549-0.042,0.821
		h6.597v-1.643H26.661z"/>
	<path clip-path="url(#SVGID_2_)" fill="#AE8637" d="M23.2,24.524l4.668,4.665l1.159-1.161l-4.663-4.663
		C24.008,23.782,23.621,24.17,23.2,24.524"/>
	<path clip-path="url(#SVGID_2_)" fill="#AE8637" d="M19.84,26.395l2.521,6.089l1.518-0.629l-2.522-6.095
		C20.872,26.01,20.366,26.226,19.84,26.395"/>
	<path clip-path="url(#SVGID_2_)" fill="#AE8637" d="M25.598,21.518l6.096,2.523l0.628-1.517l-6.09-2.521
		C26.064,20.527,25.848,21.032,25.598,21.518"/>
	<path clip-path="url(#SVGID_2_)" fill="#AE8637" d="M9.796,31.854l1.518,0.629l2.521-6.089c-0.525-0.169-1.031-0.385-1.516-0.635
		L9.796,31.854z"/>
	<path clip-path="url(#SVGID_2_)" fill="#AE8637" d="M9.312,23.365l-4.665,4.663l1.162,1.161l4.665-4.665
		C10.054,24.17,9.667,23.782,9.312,23.365"/>
	<path clip-path="url(#SVGID_2_)" fill="#AE8637" d="M16.017,26.823v6.596h1.642v-6.596c-0.271,0.022-0.543,0.042-0.82,0.042
		C16.56,26.865,16.289,26.846,16.017,26.823"/>
	<path clip-path="url(#SVGID_2_)" fill="#AE8637" d="M7.443,20.003l-6.088,2.521l0.627,1.517l6.094-2.525
		C7.827,21.032,7.612,20.527,7.443,20.003"/>
	<path clip-path="url(#SVGID_2_)" fill="#AE8637" d="M16.838,8.778c-4.54,0-8.222,3.681-8.222,8.222
		c0,4.539,3.682,8.221,8.222,8.221c4.539,0,8.221-3.682,8.221-8.221C25.059,12.459,21.377,8.778,16.838,8.778"/>
</g>
</svg>
