<?xml version="1.0" encoding="utf-8"?>
<!-- Generator: Adobe Illustrator 16.0.0, SVG Export Plug-In . SVG Version: 6.00 Build 0)  -->
<!DOCTYPE svg PUBLIC "-//W3C//DTD SVG 1.1//EN" "http://www.w3.org/Graphics/SVG/1.1/DTD/svg11.dtd">
<svg version="1.1" id="Layer_1" xmlns="http://www.w3.org/2000/svg" xmlns:xlink="http://www.w3.org/1999/xlink" x="0px" y="0px"
	 width="34px" height="34px" viewBox="0 0 34 34" enable-background="new 0 0 34 34" xml:space="preserve">
<g>
	<defs>
		<rect id="SVGID_1_" x="-12" y="-7" width="59.595" height="49"/>
	</defs>
	<clipPath id="SVGID_2_">
		<use xlink:href="#SVGID_1_"  overflow="visible"/>
	</clipPath>
	<path clip-path="url(#SVGID_2_)" fill="#AE8637" d="M31.757,9.821c0-3.352-2.718-6.07-6.071-6.07c-0.935,0-1.82,0.22-2.616,0.6
		c-1.043-1.833-3.011-3.071-5.271-3.071c-2.261,0-4.229,1.239-5.274,3.071c-0.792-0.38-1.677-0.6-2.615-0.6
		c-3.354,0-6.071,2.718-6.071,6.07c0,2.42,1.42,4.504,3.469,5.479c-0.652,0.968-1.033,2.134-1.033,3.386
		c0,3.354,2.718,6.072,6.071,6.072c0.927,0,1.669,0,1.864-0.999l0.024-0.004c-0.21-4.05-1.123-7.035-2.892-7.722
		c0,0,1.159-0.032,3.771,0.732c0.744-1.26,2.246-4.1,2.246-4.1s1.478,2.875,2.221,4.246c1.576-0.347,4.412-1.183,4.3-1.135
		c-1.623,0.793-2.578,3.68-3.238,7.833c-0.054,0.33,1.364,1.148,2.61,1.148c3.353,0,6.07-2.718,6.07-6.071
		c0-1.253-0.382-2.418-1.033-3.387C30.336,14.325,31.757,12.242,31.757,9.821"/>
	<path clip-path="url(#SVGID_2_)" fill="#AE8637" d="M20.933,18.009c-0.458,0.144-1.98,0.772-1.98,0.772l-0.211-0.388
		c-0.427-0.793-1.009-1.763-1.383-2.129c-0.346,0.339-0.871,1.24-1.285,1.943l-0.232,0.391c0,0-1.45-0.6-1.937-0.735
		c1.146,1.773,1.671,4.145,1.671,7.391c0,3.635-0.891,6.782-2.286,8.467h4.069h4.069c-1.394-1.685-2.285-4.833-2.285-8.467
		C19.142,22.226,19.894,19.81,20.933,18.009"/>
</g>
</svg>
