<?xml version="1.0" encoding="utf-8"?>
<!-- Generator: Adobe Illustrator 16.0.0, SVG Export Plug-In . SVG Version: 6.00 Build 0)  -->
<!DOCTYPE svg PUBLIC "-//W3C//DTD SVG 1.1//EN" "http://www.w3.org/Graphics/SVG/1.1/DTD/svg11.dtd">
<svg version="1.1" id="Layer_1" xmlns="http://www.w3.org/2000/svg" xmlns:xlink="http://www.w3.org/1999/xlink" x="0px" y="0px"
	 width="34px" height="34px" viewBox="0 0 34 34" enable-background="new 0 0 34 34" xml:space="preserve">
<g>
	<defs>
		<rect id="SVGID_1_" x="-17" y="-12" width="67.804" height="55.75"/>
	</defs>
	<clipPath id="SVGID_2_">
		<use xlink:href="#SVGID_1_"  overflow="visible"/>
	</clipPath>
	<path clip-path="url(#SVGID_2_)" fill="none" stroke="#AE8637" stroke-width="3" stroke-miterlimit="10" d="M28.229,4.239
		c2.453,2.455,3.973,5.847,3.973,9.594s-1.52,7.138-3.973,9.592c-2.456,2.458-5.847,3.975-9.595,3.975H1.226"/>
	<path clip-path="url(#SVGID_2_)" fill="none" stroke="#AE8637" stroke-width="3" stroke-miterlimit="10" d="M24.72,9.062
		c1.56,1.558,2.522,3.709,2.522,6.087c0,2.376-0.963,4.528-2.522,6.085c-1.557,1.557-3.709,2.522-6.086,2.522H1.226"/>
	<path clip-path="url(#SVGID_2_)" fill="none" stroke="#AE8637" stroke-width="3" stroke-miterlimit="10" d="M21.214,13.884
		c0.659,0.66,1.068,1.572,1.068,2.581c0,1.007-0.409,1.917-1.068,2.578c-0.659,0.66-1.572,1.068-2.58,1.068H1.226"/>
</g>
</svg>
