<?xml version="1.0" encoding="utf-8"?>
<!-- Generator: Adobe Illustrator 16.0.0, SVG Export Plug-In . SVG Version: 6.00 Build 0)  -->
<!DOCTYPE svg PUBLIC "-//W3C//DTD SVG 1.1//EN" "http://www.w3.org/Graphics/SVG/1.1/DTD/svg11.dtd">
<svg version="1.1" id="Layer_1" xmlns="http://www.w3.org/2000/svg" xmlns:xlink="http://www.w3.org/1999/xlink" x="0px" y="0px"
	 width="34px" height="34px" viewBox="0 0 34 34" enable-background="new 0 0 34 34" xml:space="preserve">
<g>
	<defs>
		<rect id="SVGID_1_" x="-8.191" y="-5.375" width="50.525" height="41.542"/>
	</defs>
	<clipPath id="SVGID_2_">
		<use xlink:href="#SVGID_1_"  overflow="visible"/>
	</clipPath>
	<path clip-path="url(#SVGID_2_)" fill="#AE8637" d="M21.163,22.918l1.485-1.677c-1.821-1.045-2.532-2.352-2.532-2.352
		c1.178,0.809,2.352,1.201,3.399,1.371l4.554-5.143c-1.497-0.987-2.096-2.086-2.096-2.086c0.97,0.664,1.933,1.045,2.83,1.255
		l2.605-2.942c3.874-3.875,1.759-8.471,1.759-8.471s-4.593-2.115-8.47,1.76l-2.942,2.604c0.211,0.897,0.591,1.863,1.256,2.832
		c0,0-1.099-0.6-2.085-2.097l-5.143,4.553c0.169,1.048,0.561,2.224,1.37,3.402c0,0-1.31-0.714-2.353-2.532l-1.676,1.484
		c-2.214,2.214-2.578,6.977-2.619,9.306c-2.185,1.854-5.645,3.822-9.724,2.592l-0.384,1.273c4.387,1.321,8.104-0.564,10.549-2.514
		C12.583,25.567,18.59,25.489,21.163,22.918 M29.119,6.455l0.47,0.471L14.567,21.947l-0.469-0.471L29.119,6.455z"/>
</g>
</svg>
