<?xml version="1.0" encoding="utf-8"?>
<!-- Generator: Adobe Illustrator 16.0.0, SVG Export Plug-In . SVG Version: 6.00 Build 0)  -->
<!DOCTYPE svg PUBLIC "-//W3C//DTD SVG 1.1//EN" "http://www.w3.org/Graphics/SVG/1.1/DTD/svg11.dtd">
<svg version="1.1" id="Layer_1" xmlns="http://www.w3.org/2000/svg" xmlns:xlink="http://www.w3.org/1999/xlink" x="0px" y="0px"
	 width="34px" height="34px" viewBox="0 0 34 34" enable-background="new 0 0 34 34" xml:space="preserve">
<g>
	<defs>
		<rect id="SVGID_1_" x="-16" y="-9" width="65.979" height="54.25"/>
	</defs>
	<clipPath id="SVGID_2_">
		<use xlink:href="#SVGID_1_"  overflow="visible"/>
	</clipPath>
	<path clip-path="url(#SVGID_2_)" fill="#AE8637" d="M33.417,24.859c-0.199-1.654-1.493-2.799-3.47-3.068
		c-0.518-0.073-1.062-0.107-1.623-0.107c-3.5,0-6.72,1.342-10.463,2.65c-3.495,1.225-7.444,2.667-10.506,2.826
		c-2.092,0.104-4.2-0.577-6.061-1.909c1.469,2.317,3.318,3.354,5.997,3.335c3.641-0.026,8.915-2.037,12.667-3.271
		c4.473-1.471,7.676-2.456,9.902-2.008c1.188,0.238,1.973,1.008,2.347,1.922c0.334,0.805,0.314,1.759-0.054,2.853
		C33.07,27.261,33.562,26.071,33.417,24.859"/>
	<path clip-path="url(#SVGID_2_)" fill="#AE8637" d="M28.045,24.543c-1.683-0.002-4.053,0.808-7.07,1.781
		c-3.839,1.238-9.549,3.25-13.513,3.719c0.191,0.013,0.78,0.522,2.474,0.522c3.348,0,11.295-3.021,15.258-4.241
		c2.543-0.783,3.89-0.745,4.572,0.228c0.764,1.087-0.038,2.318-0.934,2.641c1.054,0.074,2.038-0.624,2.272-1.599
		c0.177-0.733,0.047-1.4-0.372-1.935C30.171,24.949,29.429,24.544,28.045,24.543"/>
	<path clip-path="url(#SVGID_2_)" fill="#AE8637" d="M3.759,24.908c1.146,0.485,2.347,0.724,3.545,0.662
		c2.92-0.154,6.155-1.285,9.583-2.484c3.823-1.342,7.771-2.726,11.438-2.726c0.604,0,1.196,0.039,1.755,0.117
		c0.79,0.105,1.447,0.332,2,0.629c0.497-0.892,0.787-1.799,0.787-2.609c0-0.053-0.014-0.104-0.024-0.153
		c0.015-0.177,0.024-0.355,0.024-0.536c0-3.657-2.961-6.621-6.618-6.621c-0.342,0-0.676,0.034-1.002,0.083
		c-1.327-3.274-4.535-5.586-8.287-5.586c-4.48,0-8.183,3.303-8.83,7.606c-0.425-0.091-0.864-0.142-1.315-0.142
		c-3.466,0-6.277,2.81-6.277,6.277C0.537,21.783,1.838,23.835,3.759,24.908"/>
</g>
</svg>
