<?xml version="1.0" encoding="utf-8"?>
<!-- Generator: Adobe Illustrator 16.0.0, SVG Export Plug-In . SVG Version: 6.00 Build 0)  -->
<!DOCTYPE svg PUBLIC "-//W3C//DTD SVG 1.1//EN" "http://www.w3.org/Graphics/SVG/1.1/DTD/svg11.dtd">
<svg version="1.1" id="Layer_1" xmlns="http://www.w3.org/2000/svg" xmlns:xlink="http://www.w3.org/1999/xlink" x="0px" y="0px"
	 width="34px" height="34px" viewBox="0 0 34 34" enable-background="new 0 0 34 34" xml:space="preserve">
<g>
	<defs>
		<rect id="SVGID_1_" x="-17.478" y="-11.478" width="69.601" height="57.228"/>
	</defs>
	<clipPath id="SVGID_2_">
		<use xlink:href="#SVGID_1_"  overflow="visible"/>
	</clipPath>
	<path clip-path="url(#SVGID_2_)" fill="#AE8637" d="M19.063,16.365h11.099c1.344,0,2.391-0.549,3.031-1.578
		c0.771-1.239,0.836-3.07,0.151-4.452c-0.858-1.749-2.34-2.83-3.868-2.83c-1.026,0-2.077,0.511-3.04,1.478L19.063,16.365z"/>
	<path clip-path="url(#SVGID_2_)" fill="#AE8637" d="M4.479,16.365h11.105L8.208,8.983C7.243,8.016,6.192,7.505,5.169,7.505
		c-1.529,0-3.012,1.081-3.872,2.83c-0.681,1.381-0.615,3.212,0.154,4.452C2.09,15.815,3.137,16.365,4.479,16.365"/>
	<path clip-path="url(#SVGID_2_)" fill="#AE8637" d="M26.738,4.401c-0.331-1.414-1.558-2.75-3.019-3.25
		c-0.63-0.215-1.23-0.322-1.859-0.322c-1.105,0-2.016,0.35-2.693,0.984c-0.775,0.725-1.038,1.854-1.038,3.263v10.435l7.718-7.855
		C26.793,6.708,27.014,5.583,26.738,4.401"/>
	<path clip-path="url(#SVGID_2_)" fill="#AE8637" d="M12.835,0.83c-0.633,0-1.232,0.106-1.863,0.323
		c-1.457,0.5-2.688,1.834-3.018,3.249C7.68,5.583,7.899,6.709,8.846,7.654l7.717,7.856V5.076c0-1.409-0.262-2.539-1.034-3.262
		C14.846,1.18,13.94,0.83,12.835,0.83"/>
	<path clip-path="url(#SVGID_2_)" fill="#AE8637" d="M30.162,17.907H19.062l7.375,7.383c0.963,0.965,2.015,1.479,3.04,1.479
		c1.528,0,3.01-1.083,3.869-2.833c0.684-1.382,0.62-3.214-0.152-4.449C32.553,18.455,31.506,17.907,30.162,17.907"/>
	<path clip-path="url(#SVGID_2_)" fill="#AE8637" d="M15.585,17.907H4.479c-1.341,0-2.39,0.548-3.027,1.581
		c-0.769,1.235-0.835,3.067-0.154,4.449c0.86,1.75,2.343,2.833,3.872,2.833c1.024,0,2.074-0.515,3.039-1.479L15.585,17.907z"/>
	<path clip-path="url(#SVGID_2_)" fill="#AE8637" d="M18.129,18.762v10.43c0,1.412,0.266,2.543,1.036,3.267
		c0.68,0.633,1.59,0.985,2.695,0.985c0.63,0,1.229-0.108,1.86-0.321c1.46-0.5,2.688-1.838,3.018-3.254
		c0.275-1.181,0.055-2.307-0.892-3.256L18.129,18.762z"/>
	<path clip-path="url(#SVGID_2_)" fill="#AE8637" d="M7.954,29.868c0.33,1.416,1.56,2.754,3.018,3.254
		c0.631,0.213,1.23,0.321,1.862,0.321c1.106,0,2.012-0.353,2.695-0.985c0.772-0.724,1.034-1.854,1.034-3.267v-10.43l-7.717,7.851
		C7.899,27.562,7.68,28.688,7.954,29.868"/>
</g>
</svg>
