<?xml version="1.0" encoding="utf-8"?>
<!-- Generator: Adobe Illustrator 16.0.0, SVG Export Plug-In . SVG Version: 6.00 Build 0)  -->
<!DOCTYPE svg PUBLIC "-//W3C//DTD SVG 1.1//EN" "http://www.w3.org/Graphics/SVG/1.1/DTD/svg11.dtd">
<svg version="1.1" id="Layer_1" xmlns="http://www.w3.org/2000/svg" xmlns:xlink="http://www.w3.org/1999/xlink" x="0px" y="0px"
	 width="34px" height="34px" viewBox="0 0 34 34" enable-background="new 0 0 34 34" xml:space="preserve">
<rect x="0.481" y="25.548" fill="#AE8637" width="33.286" height="2.235"/>
<rect x="0.48" y="6.13" fill="#AE8637" width="33.285" height="2.234"/>
<polygon fill="#AE8637" points="4.205,12.825 2.688,12.825 0.481,20.707 1.998,20.707 "/>
<polygon fill="#AE8637" points="4.205,20.707 5.722,20.707 7.929,12.824 6.413,12.824 "/>
<polygon fill="#AE8637" points="11.654,12.825 10.137,12.825 7.93,20.707 9.446,20.707 "/>
<polygon fill="#AE8637" points="15.377,12.825 13.861,12.825 11.654,20.707 13.17,20.707 "/>
<polygon fill="#AE8637" points="19.104,12.825 17.586,12.825 15.377,20.707 16.892,20.707 "/>
<polygon fill="#AE8637" points="22.826,12.825 21.311,12.825 19.103,20.707 20.619,20.707 "/>
<polygon fill="#AE8637" points="26.553,12.825 25.033,12.825 22.826,20.707 24.34,20.707 "/>
<polygon fill="#AE8637" points="30.275,12.825 28.758,12.825 26.551,20.707 28.066,20.707 "/>
<polygon fill="#AE8637" points="34,12.825 32.482,12.825 30.275,20.707 31.789,20.707 "/>
</svg>
