<?xml version="1.0" encoding="utf-8"?>
<!-- Generator: Adobe Illustrator 16.0.0, SVG Export Plug-In . SVG Version: 6.00 Build 0)  -->
<!DOCTYPE svg PUBLIC "-//W3C//DTD SVG 1.1//EN" "http://www.w3.org/Graphics/SVG/1.1/DTD/svg11.dtd">
<svg version="1.1" id="Layer_1" xmlns="http://www.w3.org/2000/svg" xmlns:xlink="http://www.w3.org/1999/xlink" x="0px" y="0px"
	 width="34px" height="34px" viewBox="0 0 34 34" enable-background="new 0 0 34 34" xml:space="preserve">
<g>
	<defs>
		<rect id="SVGID_1_" x="-13" y="-8" width="60.667" height="49.882"/>
	</defs>
	<clipPath id="SVGID_2_">
		<use xlink:href="#SVGID_1_"  overflow="visible"/>
	</clipPath>
	<path clip-path="url(#SVGID_2_)" fill="none" stroke="#AE8637" stroke-width="3" stroke-miterlimit="10" d="M19.217,11.788
		c3.477-3.475,9.111-3.475,12.587,0"/>
	<path clip-path="url(#SVGID_2_)" fill="none" stroke="#AE8637" stroke-width="3" stroke-miterlimit="10" d="M15.022,11.965
		c0-4.914,3.983-8.899,8.899-8.899"/>
	<path clip-path="url(#SVGID_2_)" fill="none" stroke="#AE8637" stroke-width="3" stroke-miterlimit="10" d="M12.181,15.057
		c-3.476-3.476-3.476-9.11,0-12.586"/>
	<path clip-path="url(#SVGID_2_)" fill="none" stroke="#AE8637" stroke-width="3" stroke-miterlimit="10" d="M12.358,19.252
		c-4.915,0-8.899-3.985-8.899-8.899"/>
	<path clip-path="url(#SVGID_2_)" fill="none" stroke="#AE8637" stroke-width="3" stroke-miterlimit="10" d="M15.449,22.094
		c-3.476,3.475-9.11,3.475-12.586,0"/>
	<path clip-path="url(#SVGID_2_)" fill="none" stroke="#AE8637" stroke-width="3" stroke-miterlimit="10" d="M19.644,21.917
		c0,4.914-3.983,8.898-8.898,8.898"/>
	<path clip-path="url(#SVGID_2_)" fill="none" stroke="#AE8637" stroke-width="3" stroke-miterlimit="10" d="M22.485,18.824
		c3.476,3.477,3.476,9.111,0,12.587"/>
	<path clip-path="url(#SVGID_2_)" fill="none" stroke="#AE8637" stroke-width="3" stroke-miterlimit="10" d="M22.309,14.63
		c4.916,0,8.899,3.984,8.899,8.899"/>
</g>
</svg>
