<svg width="387px" height="462px" viewBox="0 0 387 462" version="1.1" xmlns="http://www.w3.org/2000/svg" xmlns:xlink="http://www.w3.org/1999/xlink">

    <!-- Generator: Sketch 39.1 (31720) - http://www.bohemiancoding.com/sketch -->

    <desc>Created with Sketch.</desc>

    <defs>

        <polygon id="path-1" points="0.00543719512 160.063063 104.649401 160.063063 104.649401 0.6683 0.00543719512 0.6683"></polygon>

        <polygon id="path-3" points="40.5210671 42.5067559 40.5210671 0.345557658 0.0894963415 0.345557658 0.0894963415 42.5067559 40.5210671 42.5067559"></polygon>

    </defs>

    <g id="Group" stroke="none" stroke-width="1" fill="none" fill-rule="evenodd">

        <text id="LIMITED-TIME-ONLY,-N" font-family="ITCAvantGardeStd-Demi, ITC Avant Garde Gothic Std" font-size="18" font-weight="500" line-spacing="20" fill="#FFFFFF">

            <tspan x="109.55" y="435">LIMITED TIME ONLY, </tspan>

            <tspan x="59.0" y="455">NOW THROUGH SEPTEMBER 26.</tspan>

        </text>

        <text id="SIGN-UP-NOW-TO-RECEI" font-family="ITCAvantGardeStd-Demi, ITC Avant Garde Gothic Std" font-size="30" font-weight="500" letter-spacing="0.121874996" fill="#FFFFFF">

            <tspan x="0.984375049" y="145">SIGN UP NOW TO RECEIVE</tspan>

        </text>

        <text id="YOUR-FIRST-ORDER" font-family="ITCAvantGardeStd-Demi, ITC Avant Garde Gothic Std" font-size="30" font-weight="500" letter-spacing="0.121874996" fill="#FFFFFF">

            <tspan x="55.2038086" y="375">YOUR FIRST ORDER</tspan>

        </text>

        <g id="YS-logotype" transform="translate(78.000000, 0.000000)" fill="#AE8536">

            <path d="M107.979394,18.9071263 C108.390606,23.1630445 111.450947,24.0480368 113.020436,24.0480368 C115.648266,24.0480368 118.074585,22.0145432 118.074585,19.1772645 C118.074585,15.5975202 115.030628,14.8136225 112.125926,13.8308501 C110.060032,13.2226251 105.66284,11.9117095 105.66284,7.09562762 C105.59567,2.55631304 109.327713,0.0405483376 113.167883,0.0405483376 C116.303585,0.0405483376 119.935691,1.81053299 120.33216,6.63655857 L117.538862,6.63655857 C117.240691,4.99252788 116.419904,2.4717913 113.05484,2.4717913 C110.536777,2.4717913 108.467606,4.20863018 108.467606,6.8420624 C108.443032,9.95279386 110.903755,10.7234332 114.730819,12.0111468 C117.112904,12.9491724 120.882628,14.3031775 120.882628,18.9949627 C120.882628,23.1564153 117.784606,26.4792798 113.06467,26.4792798 C108.846053,26.4792798 105.343372,23.791157 105.174628,18.9071263 L107.979394,18.9071263 L107.979394,18.9071263 Z" id="Fill-3"></path>

            <polygon id="Fill-5" points="124.304377 26.0165647 124.304377 0.499285934 128.254313 0.499285934 137.618823 21.906488 146.914526 0.499285934 150.857909 0.499285934 150.857909 26.0165647 148.208781 26.0165647 148.271036 3.31336266 138.485483 26.0165647 136.689909 26.0165647 126.879781 3.31336266 126.950228 26.0165647"></polygon>

            <path d="M218.686553,3.71525524 L213.681553,16.5095263 L223.747255,16.5095263 L218.686553,3.71525524 Z M209.938043,26.0173934 L206.894085,26.0173934 L217.431617,0.500114578 L220.156106,0.500114578 L230.592064,26.0173934 L227.523532,26.0173934 L224.59917,18.8496184 L212.850936,18.8496184 L209.938043,26.0173934 Z" id="Fill-7"></path>

            <path d="M79.2241532,11.5003703 L66.6649617,11.5003703 L66.6649617,16.7042578 L71.7944723,16.7042578 C71.4520681,17.9488818 70.7394085,18.9846875 69.7154723,19.6708051 C68.6915362,20.3966977 67.3596,20.8093627 65.758983,20.8093627 C62.5888766,20.8093627 58.8388128,18.4991018 58.8388128,13.156002 C58.8388128,8.12281535 62.5577489,5.74129105 65.7278553,5.74129105 C67.5004936,5.74129105 68.8930468,6.39757749 69.9546638,7.32565934 C70.4969404,7.8427335 70.9425574,8.42941381 71.2833234,9.05089719 L78.5114936,9.05089719 C77.1123872,4.1204624 71.9304511,0.0170148338 65.8982383,0.0170148338 C58.4652809,0.0170148338 52.3970255,5.53578721 52.3970255,13.156002 C52.3970255,20.5011069 58.1621957,26.5336389 65.7933872,26.5336389 C69.9546638,26.5336389 75.6100681,24.4321964 78.0658766,18.8090148 C79.1586213,16.3297105 79.3634085,13.3283601 79.2241532,11.5003703" id="Fill-9"></path>

            <path d="M197.138021,13.992933 L197.138021,16.3396542 L205.170596,16.3396542 C204.764298,18.3433166 203.545404,20.2508563 201.769489,21.6562373 C200.016511,23.0483601 197.681936,23.9731274 195.014787,23.9731274 C189.492085,23.9731274 184.650915,19.7205238 184.650915,13.2256082 C184.650915,6.82847263 189.485532,2.55598159 195.001681,2.55598159 C197.228128,2.55598159 199.221936,3.21558261 200.866787,4.35414015 C201.939872,5.07671816 202.886809,6.01142916 203.681383,7.11352634 L206.897362,7.11352634 C204.903553,2.9454445 200.155766,0.0435314578 195.057383,0.0435314578 C187.762043,0.0435314578 181.829766,5.5821913 181.829766,13.2256082 C181.829766,20.7745596 187.662106,26.4888921 195.02134,26.4888921 C200.116447,26.4888921 205.13783,23.6930455 207.34134,18.9266824 C208.088404,17.319112 208.409511,15.4762066 208.457021,13.992933 L197.138021,13.992933 Z" id="Fill-11"></path>

            <polygon id="Fill-13" points="26.1624702 0.611152941 19.6977468 0.611152941 13.5180872 11.3885033 7.42525745 0.611152941 0.796704255 0.611152941 10.2627894 17.3464573 10.2627894 26.0157361 16.7094915 26.0157361 16.7094915 17.1028358"></polygon>

            <path d="M168.321017,20.5214916 L166.438613,23.8078957 L164.543102,20.4601719 C161.430336,19.5287754 159.603634,16.4545043 159.603634,13.2062179 L159.603634,13.1747294 C159.603634,9.58835601 162.021762,5.72190077 166.487762,5.72190077 C171.125783,5.72190077 173.335847,9.96290332 173.335847,13.2774813 C173.335847,16.0965299 171.695911,19.6000389 168.321017,20.5214916 M166.451719,0.0373994885 C159.50206,0.0373994885 153.156932,5.20814118 153.156932,13.550934 L153.156932,13.5840798 C153.156932,20.1403151 158.474847,26.5192205 166.417315,26.5192205 C174.261485,26.5192205 179.782549,20.3822793 179.782549,13.2774813 C179.782549,6.17434066 174.225443,0.0373994885 166.451719,0.0373994885" id="Fill-15"></path>

            <path d="M38.8632106,20.5214916 L36.9808064,23.8078957 L35.0836574,20.4601719 C31.9692532,19.5287754 30.1392745,16.4545043 30.1392745,13.2062179 L30.1392745,13.1747294 C30.1392745,9.58835601 32.5606787,5.72190077 37.0250404,5.72190077 C41.6630617,5.72190077 43.8780404,9.96290332 43.8780404,13.2774813 C43.8780404,16.0965299 42.2315511,19.6000389 38.8632106,20.5214916 M36.9922745,0.0373994885 C30.0393383,0.0373994885 23.6942106,5.20814118 23.6942106,13.550934 L23.6942106,13.5840798 C23.6942106,20.1403151 29.0154021,26.5192205 36.9578702,26.5192205 C44.8020404,26.5192205 50.321466,20.3822793 50.321466,13.2774813 C50.321466,6.17434066 44.7659979,0.0373994885 36.9922745,0.0373994885" id="Fill-17"></path>

            <path d="M88.425817,0.496302813 L78.4371149,26.0168962 L85.4260936,26.0168962 L86.5843702,22.3277708 L95.4115191,22.3277708 L96.6074766,26.0168962 L103.661987,26.0168962 L93.9829234,0.496302813 L88.425817,0.496302813 Z M90.9143915,8.26070179 L93.7420936,17.1570292 L88.1866255,17.1570292 L90.9143915,8.26070179 Z" id="Fill-2"></path>

        </g>

        <g id="Page-1" transform="translate(85.000000, 167.000000)">

            <path d="M0,153.680218 C18.8538415,134.416849 37.7062134,115.153479 56.5585854,95.8901099 C69.9046951,82.3434883 87.2743293,67.5266414 88.3338476,46.9930468 C88.5454573,22.650245 71.1758232,5.71586667 48.5100671,5.71586667 C28.1734878,5.71586667 9.53272561,20.3212541 8.89789634,50.5922631 L2.5422561,50.5922631 C2.96694512,32.5991189 9.32111585,19.8983351 18.2175427,11.8540649 C27.1139695,3.59833514 38.7642622,0.000587387387 49.3565061,0.000587387387 C75.4109573,0.000587387387 95.1127073,20.3212541 94.6880183,48.0518126 C93.6285,63.7159658 84.9436829,74.7221369 71.5990427,89.5404523 C50.6276341,110.919885 29.6562256,132.299317 8.47320732,153.680218 L94.6880183,153.680218 L94.6880183,159.395497 L0,159.395497 L0,153.680218 Z" id="Fill-1" fill="#AE8536"></path>

            <g id="Group-5" transform="translate(94.048780, 2.083757)">

                <mask id="mask-2" fill="white">

                    <use xlink:href="#path-1"></use>

                </mask>

                <g id="Clip-4"></g>

                <path d="M95.7515043,0.6683 L95.7515043,6.38357928 L30.5081018,6.38357928 L19.0694189,65.4424441 C25.0003701,60.9973901 35.3795348,53.1645793 52.7506384,53.1645793 C83.0416933,53.1645793 104.649401,78.5661468 104.649401,106.296705 C104.649401,136.990633 79.8646079,160.06321 52.1143396,160.06321 C31.9908396,160.06321 3.60574207,145.244895 0.00543719512,111.377606 L6.35960793,111.377606 C9.53669329,139.318156 32.2024494,154.346462 52.3274189,154.346462 C76.8991323,154.346462 98.2937604,132.968498 98.2937604,106.931084 C98.2937604,79.6249126 76.4759128,58.8798586 52.3274189,58.8798586 C45.7601689,58.8798586 30.2964921,60.1500838 16.5271628,77.0844622 L11.0194311,75.6027775 L25.4250591,0.6683 L95.7515043,0.6683 Z" id="Fill-3" fill="#AE8536" mask="url(#mask-2)"></path>

            </g>

            <g id="Group-8" transform="translate(199.384146, 4.552225)">

                <mask id="mask-4" fill="white">

                    <use xlink:href="#path-3"></use>

                </mask>

                <g id="Clip-7"></g>

                <path d="M25.5796549,33.0645036 C25.5796549,36.1394766 27.886789,38.5536387 31.0726915,38.5536387 C34.14985,38.5536387 36.4569841,36.1938099 36.4569841,33.0101703 C36.4569841,29.8250622 34.14985,27.5195667 31.0726915,27.5195667 C27.886789,27.5195667 25.5796549,29.880864 25.5796549,33.0101703 L25.5796549,33.0645036 Z M21.5693561,32.9543685 C21.5693561,27.6840351 25.6898683,23.5121162 31.0726915,23.5121162 C36.3467707,23.5121162 40.5216549,27.6840351 40.5216549,33.0101703 C40.5216549,38.3891703 36.2923988,42.5067559 31.0726915,42.5067559 C25.7442402,42.5067559 21.5693561,38.4449721 21.5693561,33.0101703 L21.5693561,32.9543685 Z M12.0660207,41.7387468 L7.78092317,41.7387468 L28.3261732,1.11503514 L32.6112707,1.11503514 L12.0660207,41.7387468 Z M4.15416707,9.89794505 C4.15416707,12.9171162 6.40692927,15.3327468 9.53845976,15.3327468 C12.6156183,15.3327468 14.9771244,12.9714495 14.9771244,9.78780991 C14.9771244,6.65997207 12.6699902,4.29867477 9.53845976,4.29867477 C6.40692927,4.29867477 4.15416707,6.65997207 4.15416707,9.84361171 L4.15416707,9.89794505 Z M0.0894963415,9.78780991 C0.0894963415,4.51894505 4.21000854,0.345557658 9.53845976,0.345557658 C14.866911,0.345557658 18.9874232,4.51894505 18.9874232,9.84361171 C18.9874232,15.1682784 14.866911,19.285864 9.53845976,19.285864 C4.26438049,19.285864 0.0894963415,15.1682784 0.0894963415,9.84361171 L0.0894963415,9.78780991 Z" id="Fill-6" fill="#AE8536" mask="url(#mask-4)"></path>

            </g>

            <path d="M198.755051,67.5840586 C198.755051,70.5606441 200.894661,73.1627703 204.071746,73.1627703 C207.381088,73.1627703 209.322313,70.2963198 209.322313,67.6075541 C209.322313,64.8717973 207.381088,62.0053468 204.051173,62.0053468 C200.784448,62.0053468 198.755051,64.6955811 198.755051,67.5620315 L198.755051,67.5840586 Z M195.467752,67.7176892 C195.467752,62.4914099 199.48246,59.1168694 204.027661,59.1168694 C208.96963,59.1168694 212.611082,62.9539775 212.611082,67.5840586 C212.611082,72.2141396 208.993143,76.0512477 204.005618,76.0512477 C198.997521,76.0512477 195.467752,72.1040045 195.467752,67.7382477 L195.467752,67.7176892 Z" id="Fill-9" fill="#AE8536"></path>

            <polygon id="Fill-11" fill="#AE8536" points="216.172591 59.4256883 224.844183 59.4256883 224.844183 62.3156342 219.45989 62.3156342 219.45989 66.217355 224.711927 66.217355 224.711927 69.1058324 219.45989 69.1058324 219.45989 75.7418414 216.172591 75.7418414"></polygon>

            <polygon id="Fill-13" fill="#AE8536" points="228.230086 59.4256883 236.901677 59.4256883 236.901677 62.3156342 231.517385 62.3156342 231.517385 66.217355 236.769421 66.217355 236.769421 69.1058324 231.517385 69.1058324 231.517385 75.7418414 228.230086 75.7418414"></polygon>

        </g>

    </g>

</svg>