<?xml version="1.0" encoding="UTF-8" standalone="no"?>
<svg width="89px" height="90px" viewBox="0 0 89 90" version="1.1" xmlns="http://www.w3.org/2000/svg" xmlns:xlink="http://www.w3.org/1999/xlink">
    <!-- Generator: Sketch 39.1 (31720) - http://www.bohemiancoding.com/sketch -->
    <title>CA</title>
    <desc>Created with Sketch.</desc>
    <defs></defs>
    <g id="Page-1" stroke="none" stroke-width="1" fill="none" fill-rule="evenodd">
        <g id="ProductDetails" transform="translate(-30.000000, -1245.000000)" fill="#AE8536">
            <g id="YS-TECH" transform="translate(30.000000, 902.000000)">
                <g id="CA" transform="translate(0.000000, 343.000000)">
                    <polygon id="Fill-1" points="15.989373 62.2897397 10.7283071 66.0426164 12.9210328 69.1322055 13.6349291 68.622411 11.9771646 66.286726 16.5237192 63.0436438"></polygon>
                    <path d="M20.9481551,72.7523014 C19.9907592,73.7786712 18.5586621,73.8668219 17.5957321,72.9643562 C16.6315723,72.0618904 16.6229637,70.6231233 17.5791298,69.5967534 C18.5297619,68.5771644 19.9686228,68.4822329 20.9321678,69.3846986 C21.8957127,70.2871644 21.8987872,71.7327123 20.9481551,72.7523014 M16.9058167,68.9649041 C15.62191,70.3432603 15.6631082,72.3559315 16.9974365,73.6060685 C18.3311499,74.855589 20.3375615,74.761274 21.6220831,73.3829178 C22.9059898,72.0057945 22.8641768,69.9925068 21.5298485,68.7429863 C20.196135,67.4934658 18.1903383,67.5877808 16.9058167,68.9649041" id="Fill-2"></path>
                    <polygon id="Fill-4" points="27.4142363 78.7379178 26.3480035 72.6937397 25.784757 72.3781233 22.6321758 78.0271644 23.4364622 78.4783973 25.7515526 74.3303836 26.8177854 80.3745616 27.3810318 80.6907945 30.533613 75.0417534 29.7293267 74.5899041"></polygon>
                    <path d="M35.6558965,77.631411 C36.3218309,77.8175753 36.8863071,78.3014795 37.1390301,78.8038767 L37.897814,78.3828493 C37.5221114,77.6344932 36.7793149,77.0328493 35.8907875,76.7850411 C34.0965156,76.2832603 32.35451,77.3127123 31.8533683,79.1120959 C31.3411584,80.9564795 32.330529,82.7022329 34.1875205,83.2206575 C35.147376,83.4888082 36.2050003,83.266274 36.9262754,82.7379863 L37.6819849,80.0213425 L35.0164028,79.2766849 L34.7808969,80.1224384 L36.5579516,80.6192877 L36.1121507,82.2226438 C35.6921755,82.460589 35.0797372,82.5579863 34.4230263,82.3742877 C33.0991513,82.0044247 32.3508206,80.7684658 32.7425105,79.361137 C33.1163684,78.0160685 34.3855176,77.2763425 35.6558965,77.631411" id="Fill-6"></path>
                    <path d="M48.870174,83.1685685 C48.6801706,83.3849384 48.4133049,83.5322671 47.8328414,83.5698699 L46.4339488,83.6617192 L46.2931372,81.493089 L47.6920298,81.4018562 C48.2718784,81.363637 48.5559612,81.4745959 48.7724053,81.6650753 C48.9685577,81.8456918 49.1056799,82.0971986 49.1247417,82.3918562 C49.1438036,82.6877466 49.0411156,82.9626781 48.870174,83.1685685 L48.870174,83.1685685 Z M46.1277297,78.9552123 L47.2320862,78.883089 C47.7479855,78.8491849 47.9754977,78.9367192 48.1335264,79.0932945 C48.2811019,79.2313767 48.3764111,79.4200068 48.3911686,79.6413082 C48.4053113,79.863226 48.3352129,80.0623356 48.2066993,80.218911 C48.070192,80.3945959 47.8562075,80.5104863 47.3403082,80.5443904 L46.2359517,80.6165137 L46.1277297,78.9552123 Z M48.8787826,80.7404178 C49.1634803,80.4340479 49.3387262,79.9963767 49.309826,79.553774 C49.2784662,79.0735685 49.0466497,78.643911 48.696158,78.3609658 C48.3739515,78.1045274 47.9668891,77.9547329 47.3409231,77.9954178 L45.1500421,78.1390479 L45.5706322,84.598089 L48.0560493,84.4359658 C48.7090708,84.3928151 49.1222822,84.2085 49.4358801,83.9101438 C49.845402,83.5310342 50.086442,82.9688425 50.0470885,82.3684315 C49.9997414,81.6404178 49.5053635,81.0048699 48.8787826,80.7404178 L48.8787826,80.7404178 Z" id="Fill-8"></path>
                    <polygon id="Fill-10" points="54.4817317 82.5256233 53.926479 80.4254178 55.9765484 79.8804863 55.7514958 79.0316507 53.7014264 79.5765822 53.2759171 77.9676781 55.9501078 77.2569247 55.7250552 76.408089 52.1598775 77.3561712 53.8151825 83.6117877 57.4695203 82.6396644 57.2450826 81.7908288"></polygon>
                    <path d="M62.9450011,77.5086164 L61.1636421,78.4043014 L60.9785578,75.8066301 L62.9450011,77.5086164 Z M60.0070192,74.5879315 L60.5118504,81.5789589 L61.3690179,81.1468356 L61.2269765,79.3560822 L63.6595124,78.1324521 L65.0147472,79.3135479 L65.8725297,78.8826575 L60.5844083,74.297589 L60.0070192,74.5879315 Z" id="Fill-12"></path>
                    <path d="M70.2889105,74.6792877 C69.2165286,75.5398356 67.7801273,75.426411 66.8694636,74.286 C65.9993831,73.1973699 66.1420394,71.7339452 67.1713784,70.9079178 C67.7106438,70.4745616 68.4313041,70.2982603 68.9859419,70.3857945 L69.088015,69.5227808 C68.2628221,69.3920959 67.3435498,69.6448356 66.6235044,70.2224384 C65.169886,71.3887397 64.9860315,73.4069589 66.1500331,74.8642192 C67.34232,76.3572329 69.3321294,76.5717534 70.8361695,75.3647671 C71.6134004,74.7409315 72.0567417,73.7577123 72.0444438,72.855863 L71.1651399,72.8040822 C71.1553015,73.3687397 70.965913,74.1362055 70.2889105,74.6792877" id="Fill-14"></path>
                    <polygon id="Fill-16" points="78.0514423 67.5932671 78.6239122 66.8677192 73.5596136 62.8516233 72.9877586 63.5765548 74.9769531 65.154637 72.7448739 67.9828562 70.7556794 66.404774 70.1832095 67.1303219 75.2468932 71.1470342 75.8193631 70.4214863 73.4317148 68.5284041 75.663794 65.6995685"></polygon>
                    <path d="M53.5113614,47.8190342 L58.5498343,36.0425959 L63.5889221,47.8190342 L53.5113614,47.8190342 Z M53.0391199,48.9027329 L64.0304188,48.9027329 L67.2297322,56.3437603 L68.4183297,56.3437603 L58.8781898,34.026226 L58.2220938,34.026226 L48.6819538,56.3437603 L49.8711662,56.3437603 L53.0391199,48.9027329 Z" id="Fill-18"></path>
                    <path d="M44.4563759,88.7673699 C20.4851985,88.7673699 0.983713563,69.216411 0.983713563,45.1851781 C0.983713563,21.1539452 20.4851985,1.6029863 44.4563759,1.6029863 C68.4275532,1.6029863 87.9290382,21.1539452 87.9290382,45.1851781 C87.9290382,69.216411 68.4275532,88.7673699 44.4563759,88.7673699 M44.4563759,0.616684932 C19.9428586,0.616684932 -0.000122979568,20.6102466 -0.000122979568,45.1851781 C-0.000122979568,69.7601096 19.9428586,89.7536712 44.4563759,89.7536712 C68.9698931,89.7536712 88.9128747,69.7601096 88.9128747,45.1851781 C88.9128747,20.6102466 68.9698931,0.616684932 44.4563759,0.616684932" id="Fill-20"></path>
                    <path d="M26.0313311,10.6913219 L27.1430664,10.135911 C27.500322,9.95714384 27.7223001,9.94543151 27.9129185,10.0095411 C28.1029219,10.0730342 28.2732486,10.2160479 28.3722471,10.4151575 C28.4712457,10.6142671 28.4829287,10.8368014 28.4195943,11.0278973 C28.3556449,11.2183767 28.2123737,11.3891301 27.855733,11.5678973 L26.7439977,12.1233082 L26.0313311,10.6913219 Z M28.426973,15.5057055 L27.1203151,12.8796781 L27.7555046,12.5615959 L31.0384442,14.1994726 L31.9989146,13.7192671 L28.6840003,12.0579658 C28.938568,11.8711849 29.0849137,11.6683767 29.1882166,11.4378288 C29.3868286,11.000774 29.396052,10.4792671 29.1660802,10.0181712 C28.9367234,9.5564589 28.5161332,9.25008904 28.0475811,9.14591096 C27.6909403,9.06639041 27.314008,9.10584247 26.8061023,9.35981507 L24.8617954,10.3319384 L27.632525,15.9026918 L28.426973,15.5057055 Z" id="Fill-23"></path>
                    <path d="M33.8652525,7.3899863 C34.1659376,7.31231507 34.4727716,7.50834247 34.554553,7.82765753 C34.6394089,8.1549863 34.4475608,8.48046575 34.163478,8.838 C33.8591035,8.65060274 33.5196799,8.39847945 33.4458922,8.11368493 C33.3708747,7.82087671 33.5043075,7.48306849 33.8652525,7.3899863 L33.8652525,7.3899863 Z M36.5179218,11.1521096 C36.2867202,11.5330685 35.903024,11.8246438 35.4043418,11.9534795 C34.6480175,12.1495068 33.9937662,11.8493014 33.832048,11.2205342 C33.6992301,10.7039589 33.9501084,10.2533425 34.3110534,9.83847945 L36.5179218,11.1521096 Z M33.6149891,9.41128767 C33.1777967,9.95621918 32.7990197,10.5874521 33.0154637,11.4319726 C33.3056955,12.5606712 34.4174308,13.0353288 35.6035687,12.7289589 C36.3426759,12.5384795 36.8930095,12.1112877 37.2318182,11.5737534 L37.9967511,12.0194384 L39.0968033,11.7352603 L37.5423416,10.8223151 C37.6554828,10.3710822 37.6585573,9.88347945 37.5349628,9.40080822 C37.3707851,8.76341096 37.1069939,8.34423288 37.0178337,8.21108219 L36.2996331,8.62656164 C36.3758804,8.74430137 36.5763371,9.05991781 36.7183785,9.61163014 C36.7847875,9.86991781 36.8032344,10.1226575 36.7749491,10.3686164 L34.8835233,9.24978082 C35.2481578,8.77820548 35.5377746,8.26286301 35.3711373,7.61621918 C35.1608423,6.79820548 34.3534814,6.4369726 33.6660256,6.61450685 C32.8408327,6.82779452 32.4436087,7.60080822 32.6293079,8.32512329 C32.7510576,8.79854795 33.1353688,9.11293151 33.6149891,9.41128767 L33.6149891,9.41128767 Z" id="Fill-25"></path>
                    <path d="M44.6583698,10.0694589 C44.2783629,10.418363 43.7692275,10.6199384 42.9003769,10.6452123 L41.9694216,10.6717192 L41.8396781,6.13843151 L42.7712483,6.11130822 C43.640099,6.08665068 44.1590728,6.25863699 44.5593713,6.58534932 C45.0408363,6.98973288 45.3427511,7.61295205 45.3630427,8.30582877 C45.3827195,8.99932192 45.1164687,9.63856849 44.6583698,10.0694589 M46.2491105,8.28055479 C46.2195954,7.24925342 45.7147643,6.33815753 44.9356887,5.79199315 C44.4197894,5.43322603 43.7753765,5.23781507 42.79154,5.26555479 L40.9296293,5.31918493 L41.1067199,11.5415137 L42.9686305,11.4878836 C43.953082,11.4601438 44.5944204,11.2277466 45.0887983,10.8400068 C45.8346694,10.2494589 46.2786256,9.31185616 46.2491105,8.28055479" id="Fill-27"></path>
                    <polygon id="Fill-29" points="55.3608512 6.74284932 54.5042985 6.50983562 52.8754341 12.5213425 53.7326017 12.7543562"></polygon>
                    <polygon id="Fill-31" points="59.355289 9.86899315 60.7492624 15.6049521 61.3094343 15.8731027 63.9885442 10.2567329 63.1885621 9.87330822 61.2208891 13.9966644 59.8275306 8.26132192 59.2667437 7.99255479 56.5870189 13.6089247 57.3876159 13.9923493"></polygon>
                    <path d="M41.8107164,51.8737192 C39.8418135,54.2901575 37.0348049,55.6765274 34.1097359,55.6765274 C28.1187862,55.6765274 23.7702287,51.2640616 23.7702287,45.185363 C23.7702287,39.2040616 28.0935754,34.6941986 33.8274978,34.6941986 C36.5883891,34.6941986 39.2275306,35.8438562 41.0685347,37.8478973 L41.2443955,38.0396096 L42.0615947,37.2789247 L41.8894233,37.0890616 C39.8805521,34.8778973 36.9425702,33.6092671 33.8274978,33.6092671 C27.4411688,33.6092671 22.625289,38.585774 22.625289,45.185363 C22.625289,51.8928288 27.4553115,56.7608425 34.1097359,56.7608425 C37.4424822,56.7608425 40.6485595,55.1957055 42.6857161,52.5746096 L42.8431299,52.3724178 L41.9730495,51.6746096 L41.8107164,51.8737192 Z" id="Fill-33"></path>
                </g>
            </g>
        </g>
    </g>
</svg>