<?xml version="1.0" encoding="utf-8"?>
<!-- Generator: Adobe Illustrator 19.0.0, SVG Export Plug-In . SVG Version: 6.00 Build 0)  -->
<svg version="1.0" id="Layer_1" xmlns="http://www.w3.org/2000/svg" xmlns:xlink="http://www.w3.org/1999/xlink" x="0px" y="0px"
	 viewBox="0 0 32 32" enable-background="new 0 0 32 32" xml:space="preserve">
<g id="XMLID_15_">
	<g id="XMLID_16_">
		<g id="XMLID_20_">
			<rect id="XMLID_38_" x="15.4" y="0" fill="#555555" width="1" height="7"/>
			
				<rect id="XMLID_37_" x="8.2" y="3.7" transform="matrix(0.3421 0.9397 -0.9397 0.3421 11.728 -8.252)" fill="#555555" width="7" height="1"/>
			
				<rect id="XMLID_36_" x="4.6" y="5.8" transform="matrix(0.6427 0.7661 -0.7661 0.6427 7.7649 -3.9531)" fill="#555555" width="7" height="1"/>
			
				<rect id="XMLID_35_" x="1.9" y="9.1" transform="matrix(0.8661 0.5 -0.5 0.8661 5.5081 -1.4295)" fill="#555555" width="7" height="1"/>
			
				<rect id="XMLID_34_" x="0.5" y="13" transform="matrix(0.9848 0.1736 -0.1736 0.9848 2.4065 -0.4869)" fill="#555555" width="7" height="1"/>
			
				<rect id="XMLID_33_" x="3.5" y="14.2" transform="matrix(0.1738 0.9848 -0.9848 0.1738 20.7319 10.7053)" fill="#555555" width="1" height="7"/>
			
				<rect id="XMLID_32_" x="4.9" y="18.1" transform="matrix(0.4999 0.8661 -0.8661 0.4999 21.4649 6.1328)" fill="#555555" width="1" height="7"/>
			
				<rect id="XMLID_31_" x="7.6" y="21.4" transform="matrix(0.766 0.6429 -0.6429 0.766 17.8886 0.5997)" fill="#555555" width="1" height="7"/>
			
				<rect id="XMLID_30_" x="11.3" y="23.4" transform="matrix(0.9396 0.3423 -0.3423 0.9396 9.9427 -2.3952)" fill="#555555" width="1" height="7"/>
			<rect id="XMLID_29_" x="15.4" y="24.2" fill="#555555" width="1" height="7"/>
			
				<rect id="XMLID_28_" x="16.5" y="26.5" transform="matrix(0.3421 0.9397 -0.9397 0.3421 38.5183 -1.0744)" fill="#555555" width="7" height="1"/>
			
				<rect id="XMLID_27_" x="20.1" y="24.4" transform="matrix(0.6428 0.766 -0.766 0.6428 27.5036 -9.2424)" fill="#555555" width="7" height="1"/>
			
				<rect id="XMLID_26_" x="22.8" y="21.2" transform="matrix(0.866 0.5 -0.5 0.866 14.3589 -10.2795)" fill="#555555" width="7" height="1"/>
			
				<rect id="XMLID_25_" x="24.3" y="17.2" transform="matrix(0.9848 0.1736 -0.1736 0.9848 3.4968 -4.5573)" fill="#555555" width="7" height="1"/>
			
				<rect id="XMLID_24_" x="27.3" y="10" transform="matrix(0.1738 0.9848 -0.9848 0.1738 36.2697 -16.2121)" fill="#555555" width="1" height="7"/>
			
				<rect id="XMLID_23_" x="25.9" y="6" transform="matrix(0.4999 0.8661 -0.8661 0.4999 21.4663 -18.0473)" fill="#555555" width="1" height="7"/>
			
				<rect id="XMLID_22_" x="23.2" y="2.8" transform="matrix(0.766 0.6429 -0.6429 0.766 9.6187 -13.726)" fill="#555555" width="1" height="7"/>
			
				<rect id="XMLID_21_" x="19.5" y="0.7" transform="matrix(0.9396 0.3423 -0.3423 0.9396 2.6646 -6.5989)" fill="#555555" width="1" height="7"/>
		</g>
		<path id="XMLID_17_" fill="#555555" d="M15.9,22.6c-3.9,0-7-3.1-7-7s3.1-7,7-7s7,3.1,7,7S19.8,22.6,15.9,22.6z M15.9,9.6
			c-3.3,0-6,2.7-6,6s2.7,6,6,6s6-2.7,6-6S19.2,9.6,15.9,9.6z"/>
	</g>
</g>
</svg>
