<?xml version="1.0" encoding="utf-8"?>
<!-- Generator: Adobe Illustrator 19.0.0, SVG Export Plug-In . SVG Version: 6.00 Build 0)  -->
<svg version="1.0" id="Layer_1" xmlns="http://www.w3.org/2000/svg" xmlns:xlink="http://www.w3.org/1999/xlink" x="0px" y="0px"
	 viewBox="0 0 33 31.5" enable-background="new 0 0 33 31.5" xml:space="preserve">
<g id="XMLID_228_">
	<g id="XMLID_235_">
		<line id="XMLID_244_" fill="none" stroke="#ED2224" x1="16.5" y1="0" x2="16.5" y2="31.2"/>
		<line id="XMLID_243_" fill="none" stroke="#ED2224" x1="11.2" y1="0.9" x2="21.8" y2="30.3"/>
		<line id="XMLID_242_" fill="none" stroke="#ED2224" x1="6.5" y1="3.7" x2="26.5" y2="27.6"/>
		<line id="XMLID_241_" fill="none" stroke="#ED2224" x1="3" y1="7.8" x2="30" y2="23.4"/>
		<line id="XMLID_240_" fill="none" stroke="#ED2224" x1="1.1" y1="12.9" x2="31.9" y2="18.3"/>
		<line id="XMLID_239_" fill="none" stroke="#ED2224" x1="1.1" y1="18.3" x2="31.9" y2="12.9"/>
		<line id="XMLID_238_" fill="none" stroke="#ED2224" x1="3" y1="23.4" x2="30" y2="7.8"/>
		<line id="XMLID_237_" fill="none" stroke="#ED2224" x1="6.5" y1="27.6" x2="26.5" y2="3.7"/>
		<line id="XMLID_236_" fill="none" stroke="#ED2224" x1="11.2" y1="30.3" x2="21.8" y2="0.9"/>
	</g>
	<g id="XMLID_229_">
		<path id="XMLID_210_" fill-rule="evenodd" clip-rule="evenodd" fill="#ED2224" d="M16.5,23.1c-4.1,0-7.5-3.4-7.5-7.5
			s3.4-7.5,7.5-7.5s7.5,3.4,7.5,7.5S20.6,23.1,16.5,23.1z"/>
		<path id="XMLID_207_" fill="#FFFFFF" d="M16.5,9.1c3.6,0,6.5,2.9,6.5,6.5s-2.9,6.5-6.5,6.5S10,19.2,10,15.6S12.9,9.1,16.5,9.1
			 M16.5,7.1c-4.7,0-8.5,3.8-8.5,8.5s3.8,8.5,8.5,8.5s8.5-3.8,8.5-8.5S21.2,7.1,16.5,7.1L16.5,7.1z"/>
	</g>
</g>
</svg>
