<?xml version="1.0" encoding="utf-8"?>
<!-- Generator: Adobe Illustrator 19.1.0, SVG Export Plug-In . SVG Version: 6.00 Build 0)  -->
<svg version="1.1" xmlns="http://www.w3.org/2000/svg" xmlns:xlink="http://www.w3.org/1999/xlink" x="0px" y="0px"
	 viewBox="0 0 60 60" style="enable-background:new 0 0 60 60;" xml:space="preserve">
<style type="text/css">
	.st0{fill:none;stroke:#AAAAAA;stroke-linejoin:round;stroke-miterlimit:10;}
	.st1{fill:none;stroke:#FF0000;}
	.st2{fill-rule:evenodd;clip-rule:evenodd;fill:#FF0000;}
	.st3{fill:#FFFFFF;}
	.st4{fill:#AAAAAA;}
	.st5{fill-rule:evenodd;clip-rule:evenodd;fill:#555555;}
	.st6{fill-rule:evenodd;clip-rule:evenodd;fill:none;stroke:#555555;stroke-miterlimit:10;}
	.st7{fill:#17C8FF;}
	.st8{fill:none;stroke:#17C8FF;stroke-miterlimit:10;}
	.st9{fill:none;stroke:#AAAAAA;stroke-miterlimit:10;}
	.st10{fill:#AAAAAA;stroke:#FFFFFF;stroke-miterlimit:14;}
	.st11{fill-rule:evenodd;clip-rule:evenodd;fill:none;stroke:#555555;stroke-width:1.4586;stroke-miterlimit:10;}
	.st12{fill:none;stroke:#555555;stroke-width:1.4586;stroke-miterlimit:10;}
	.st13{fill:none;stroke:#555555;stroke-miterlimit:10;}
	.st14{fill:none;stroke:#17C8FF;stroke-width:1.274;stroke-miterlimit:10;}
	.st15{fill:none;stroke:#17C8FF;stroke-width:1.3845;stroke-miterlimit:10;}
	.st16{fill:none;stroke:#AAAAAA;stroke-width:1.3937;stroke-miterlimit:10;}
	.st17{fill:none;stroke:#17C8FF;stroke-width:1.3937;stroke-miterlimit:10;}
	.st18{fill:#555555;}
	.st19{fill:#FF8D00;}
	.st20{fill:none;stroke:#FFCF00;stroke-miterlimit:10;}
	.st21{fill:none;stroke:#FFFFFF;stroke-width:1.3213;stroke-miterlimit:10;}
	.st22{fill:none;}
	.st23{clip-path:url(#SVGID_4_);}
	.st24{fill:none;stroke:#FFFFFF;stroke-width:0.885;stroke-miterlimit:10;}
	.st25{clip-path:url(#SVGID_6_);}
	.st26{fill:none;stroke:#555555;}
	.st27{fill:none;stroke:#17C8FF;}
	.st28{fill:#FF0000;}
	.st29{fill:none;stroke:#231F20;stroke-miterlimit:10;}
	.st30{fill:#FFCF00;stroke:#FFCF00;stroke-miterlimit:10;}
	.st31{fill:#FFCF00;}
	.st32{display:none;}
	.st33{display:inline;}
	.st34{fill:#FF7950;}
	.st35{display:inline;fill:#FF00FF;}
	.st36{fill:#FF00FF;}
	.st37{display:inline;fill:none;stroke:#FF00FF;stroke-miterlimit:10;}
	.st38{fill:none;stroke:#FF7950;stroke-miterlimit:10;}
	.st39{display:inline;fill-rule:evenodd;clip-rule:evenodd;fill:none;stroke:#FF00FF;stroke-miterlimit:10;}
	.st40{fill:none;stroke:#FF00FF;stroke-width:0.9554;stroke-miterlimit:10;}
	.st41{fill:none;stroke:#FF00FF;stroke-width:0.9554;stroke-miterlimit:10;stroke-dasharray:1.9094,1.9094;}
	.st42{fill:none;stroke:#FF00FF;stroke-width:0.9554;stroke-miterlimit:10;stroke-dasharray:1.848,1.848;}
	.st43{fill:none;stroke:#FF00FF;stroke-width:0.905;stroke-miterlimit:10;}
	.st44{fill:none;stroke:#FF00FF;stroke-width:0.905;stroke-miterlimit:10;stroke-dasharray:1.7098,1.7098;}
	.st45{fill:none;stroke:#FF00FF;stroke-width:0.905;stroke-miterlimit:10;stroke-dasharray:1.6887,1.6887;}
	.st46{fill:none;stroke:#FF00FF;stroke-width:0.9472;stroke-miterlimit:10;}
	.st47{fill:none;stroke:#FF00FF;stroke-width:0.9472;stroke-miterlimit:10;stroke-dasharray:1.9322,1.9322;}
	.st48{fill:none;stroke:#FF00FF;stroke-width:0.9472;stroke-miterlimit:10;stroke-dasharray:1.9477,1.9477;}
	.st49{fill:none;stroke:#FF00FF;stroke-width:0.9637;stroke-miterlimit:10;}
	.st50{fill:none;stroke:#FF00FF;stroke-width:0.9637;stroke-miterlimit:10;stroke-dasharray:1.9581,1.9581;}
	.st51{fill:none;stroke:#FF00FF;stroke-width:0.9637;stroke-miterlimit:10;stroke-dasharray:1.8671,1.8671;}
	.st52{fill:none;stroke:#FF00FF;stroke-miterlimit:10;}
	.st53{fill:none;stroke:#FF00FF;stroke-miterlimit:10;stroke-dasharray:2.0018,2.0018;}
	.st54{fill:none;stroke:#FF00FF;stroke-miterlimit:10;stroke-dasharray:2.0037,2.0037;}
	.st55{fill:none;stroke:#FF00FF;stroke-miterlimit:10;stroke-dasharray:2.0124,2.0124;}
	.st56{fill:none;stroke:#FF00FF;stroke-miterlimit:10;stroke-dasharray:2.0615,2.0615;}
	.st57{fill:none;stroke:#FF00FF;stroke-miterlimit:10;stroke-dasharray:2.0088,2.0088;}
	.st58{fill:none;stroke:#FF00FF;stroke-miterlimit:10;stroke-dasharray:1.9127,1.9127;}
	.st59{fill:none;stroke:#FF00FF;stroke-miterlimit:10;stroke-dasharray:1.9674,1.9674;}
	.st60{fill:none;stroke:#FF00FF;stroke-miterlimit:10;stroke-dasharray:2.0152,2.0152;}
</style>
<g id="images">
</g>
<g id="graphic">
	<g>
		<path class="st0" d="M27.8,36.4c1.9,0,7.7,0,7.7,0c1.9,0,3.4-1.5,3.4-3.4c0-1.9-1.6-3.4-3.4-3.4c0,0-0.8,0-1.1,0
			c-0.9,0-0.8-0.8,0-0.8c1.7,0,3-1.3,3-2.6c0-1.4-1.6-2.6-3.4-2.6H18.2c-1.9,0-3.4,1.2-3.4,2.6c0,1.3,1.2,2.6,2.9,2.6
			c0.7,0,0.7,0.8,0,0.8c-1.1,0-6.3,0-6.3,0c-1.9,0-3.4,1.5-3.4,3.4c0,1.9,1.6,3.4,3.4,3.4h3.6c0,0,1.9,0,2.6,0H27.8z"/>
		<g>
			<path class="st4" d="M30.6,39.3c-1.7,0-3.1-1.2-3.1-2.6c0-0.9,0.6-1.8,1.4-2.2l-1.4,0h-3.6c-2.2,0-3.9-1.7-3.9-3.9
				s1.8-3.9,3.9-3.9H29c-1.4-0.5-2.1-1.7-2.1-2.9c0-1.7,1.8-3.1,3.9-3.1h15.9c2.2,0,3.9,1.4,3.9,3.1c0,1.3-0.9,2.4-2.2,2.9
				c2.1,0.1,3.7,1.8,3.7,3.9c0,2.1-1.8,3.9-3.9,3.9h-6.6c0.9,0.5,1.4,1.4,1.4,2.2c0,1.4-1.4,2.6-3.1,2.6H30.6z"/>
			<path class="st3" d="M46.7,21.2c1.9,0,3.4,1.2,3.4,2.6c0,1.3-1.2,2.6-3,2.6c-0.8,0-0.9,0.8,0,0.8c0.2,0,1.1,0,1.1,0
				c1.9,0,3.4,1.5,3.4,3.4c0,1.9-1.6,3.4-3.4,3.4c0,0-5.8,0-7.7,0c-0.7,0-0.7,0.7,0,0.7c1.2,0,2,1,2,2c0,1.2-1.2,2.1-2.6,2.1h-9.3
				c-1.4,0-2.6-0.9-2.6-2.1c0-1,1-2,2-2c0.7,0,0.6-0.7,0-0.7c-0.6,0-2.6,0-2.6,0h-3.6c-1.9,0-3.4-1.5-3.4-3.4c0-1.9,1.6-3.4,3.4-3.4
				c0,0,5.2,0,6.3,0c0.7,0,0.7-0.8,0-0.8c-1.7,0-2.9-1.3-2.9-2.6c0-1.4,1.6-2.6,3.4-2.6H46.7 M46.7,20.2H30.8
				c-2.5,0-4.4,1.6-4.4,3.6c0,0.8,0.3,1.7,1,2.4h-3.4c-2.5,0-4.4,2-4.4,4.4s2,4.4,4.4,4.4h3.6h0.1c-0.4,0.5-0.6,1.1-0.6,1.7
				c0,1.7,1.6,3.1,3.6,3.1h9.3c2,0,3.6-1.4,3.6-3.1c0-0.6-0.2-1.2-0.6-1.7h5.3c2.5,0,4.4-2,4.4-4.4c0-1.9-1.2-3.4-2.9-4.1
				c0.8-0.7,1.3-1.6,1.3-2.7C51.1,21.8,49.1,20.2,46.7,20.2L46.7,20.2z"/>
		</g>
	</g>
</g>
<g id="button">
</g>
<g id="text">
</g>
<g id="guide">
</g>
<g id="SPEC" class="st32">
</g>
<g id="Isolation_Mode">
</g>
</svg>
