<?xml version="1.0" encoding="utf-8"?>
<!-- Generator: Adobe Illustrator 19.1.0, SVG Export Plug-In . SVG Version: 6.00 Build 0)  -->
<svg version="1.1" xmlns="http://www.w3.org/2000/svg" xmlns:xlink="http://www.w3.org/1999/xlink" x="0px" y="0px"
	 viewBox="0 0 60 60" style="enable-background:new 0 0 60 60;" xml:space="preserve">
<style type="text/css">
	.st0{fill:none;stroke:#AAAAAA;stroke-linejoin:round;stroke-miterlimit:10;}
	.st1{fill:none;stroke:#FF0000;}
	.st2{fill-rule:evenodd;clip-rule:evenodd;fill:#FF0000;}
	.st3{fill:#FFFFFF;}
	.st4{fill:#AAAAAA;}
	.st5{fill-rule:evenodd;clip-rule:evenodd;fill:#555555;}
	.st6{fill-rule:evenodd;clip-rule:evenodd;fill:none;stroke:#555555;stroke-miterlimit:10;}
	.st7{fill:#17C8FF;}
	.st8{fill:none;stroke:#17C8FF;stroke-miterlimit:10;}
	.st9{fill:none;stroke:#AAAAAA;stroke-miterlimit:10;}
	.st10{fill:#AAAAAA;stroke:#FFFFFF;stroke-miterlimit:14;}
	.st11{fill-rule:evenodd;clip-rule:evenodd;fill:none;stroke:#555555;stroke-width:1.4586;stroke-miterlimit:10;}
	.st12{fill:none;stroke:#555555;stroke-width:1.4586;stroke-miterlimit:10;}
	.st13{fill:none;stroke:#555555;stroke-miterlimit:10;}
	.st14{fill:none;stroke:#17C8FF;stroke-width:1.274;stroke-miterlimit:10;}
	.st15{fill:none;stroke:#17C8FF;stroke-width:1.3845;stroke-miterlimit:10;}
	.st16{fill:none;stroke:#AAAAAA;stroke-width:1.3937;stroke-miterlimit:10;}
	.st17{fill:none;stroke:#17C8FF;stroke-width:1.3937;stroke-miterlimit:10;}
	.st18{fill:#555555;}
	.st19{fill:#FF8D00;}
	.st20{fill:none;stroke:#FFCF00;stroke-miterlimit:10;}
	.st21{fill:none;stroke:#FFFFFF;stroke-width:1.3213;stroke-miterlimit:10;}
	.st22{fill:none;}
	.st23{clip-path:url(#SVGID_4_);}
	.st24{fill:none;stroke:#FFFFFF;stroke-width:0.885;stroke-miterlimit:10;}
	.st25{clip-path:url(#SVGID_6_);}
	.st26{fill:none;stroke:#555555;}
	.st27{fill:none;stroke:#17C8FF;}
	.st28{fill:#FF0000;}
	.st29{fill:none;stroke:#231F20;stroke-miterlimit:10;}
	.st30{fill:#FFCF00;stroke:#FFCF00;stroke-miterlimit:10;}
	.st31{fill:#FFCF00;}
	.st32{display:none;}
	.st33{display:inline;}
	.st34{fill:#FF7950;}
	.st35{display:inline;fill:#FF00FF;}
	.st36{fill:#FF00FF;}
	.st37{display:inline;fill:none;stroke:#FF00FF;stroke-miterlimit:10;}
	.st38{fill:none;stroke:#FF7950;stroke-miterlimit:10;}
	.st39{display:inline;fill-rule:evenodd;clip-rule:evenodd;fill:none;stroke:#FF00FF;stroke-miterlimit:10;}
	.st40{fill:none;stroke:#FF00FF;stroke-width:0.9554;stroke-miterlimit:10;}
	.st41{fill:none;stroke:#FF00FF;stroke-width:0.9554;stroke-miterlimit:10;stroke-dasharray:1.9094,1.9094;}
	.st42{fill:none;stroke:#FF00FF;stroke-width:0.9554;stroke-miterlimit:10;stroke-dasharray:1.848,1.848;}
	.st43{fill:none;stroke:#FF00FF;stroke-width:0.905;stroke-miterlimit:10;}
	.st44{fill:none;stroke:#FF00FF;stroke-width:0.905;stroke-miterlimit:10;stroke-dasharray:1.7098,1.7098;}
	.st45{fill:none;stroke:#FF00FF;stroke-width:0.905;stroke-miterlimit:10;stroke-dasharray:1.6887,1.6887;}
	.st46{fill:none;stroke:#FF00FF;stroke-width:0.9472;stroke-miterlimit:10;}
	.st47{fill:none;stroke:#FF00FF;stroke-width:0.9472;stroke-miterlimit:10;stroke-dasharray:1.9322,1.9322;}
	.st48{fill:none;stroke:#FF00FF;stroke-width:0.9472;stroke-miterlimit:10;stroke-dasharray:1.9477,1.9477;}
	.st49{fill:none;stroke:#FF00FF;stroke-width:0.9637;stroke-miterlimit:10;}
	.st50{fill:none;stroke:#FF00FF;stroke-width:0.9637;stroke-miterlimit:10;stroke-dasharray:1.9581,1.9581;}
	.st51{fill:none;stroke:#FF00FF;stroke-width:0.9637;stroke-miterlimit:10;stroke-dasharray:1.8671,1.8671;}
	.st52{fill:none;stroke:#FF00FF;stroke-miterlimit:10;}
	.st53{fill:none;stroke:#FF00FF;stroke-miterlimit:10;stroke-dasharray:2.0018,2.0018;}
	.st54{fill:none;stroke:#FF00FF;stroke-miterlimit:10;stroke-dasharray:2.0037,2.0037;}
	.st55{fill:none;stroke:#FF00FF;stroke-miterlimit:10;stroke-dasharray:2.0124,2.0124;}
	.st56{fill:none;stroke:#FF00FF;stroke-miterlimit:10;stroke-dasharray:2.0615,2.0615;}
	.st57{fill:none;stroke:#FF00FF;stroke-miterlimit:10;stroke-dasharray:2.0088,2.0088;}
	.st58{fill:none;stroke:#FF00FF;stroke-miterlimit:10;stroke-dasharray:1.9127,1.9127;}
	.st59{fill:none;stroke:#FF00FF;stroke-miterlimit:10;stroke-dasharray:1.9674,1.9674;}
	.st60{fill:none;stroke:#FF00FF;stroke-miterlimit:10;stroke-dasharray:2.0152,2.0152;}
</style>
<g id="images">
</g>
<g id="graphic">
	<g>
		<g>
			<path class="st16" d="M26.3,24c-0.4-0.7-0.6-1.4-0.6-2.2c0-2.6,2.1-4.6,4.6-4.6s4.6,2.1,4.6,4.6s-2.1,4.6-4.6,4.6H11"/>
			<path class="st16" d="M32.1,36c-0.4,0.7-0.6,1.4-0.6,2.2c0,2.6,2.1,4.6,4.6,4.6c2.6,0,4.6-2.1,4.6-4.6s-2.1-4.6-4.6-4.6H11"/>
			<path class="st16" d="M11,30h32.7c2.6,0,4.6-2.1,4.6-4.6s-2.1-4.6-4.6-4.6c-2.6,0-4.6,2.1-4.6,4.6c0,0.8,0.2,1.6,0.6,2.2"/>
		</g>
		<g>
			<path class="st17" d="M26.3,24c-0.4-0.7-0.6-1.4-0.6-2.2c0-2.6,2.1-4.6,4.6-4.6s4.6,2.1,4.6,4.6s-2.1,4.6-4.6,4.6H11"/>
			<path class="st17" d="M32.1,36c-0.4,0.7-0.6,1.4-0.6,2.2c0,2.6,2.1,4.6,4.6,4.6c2.6,0,4.6-2.1,4.6-4.6s-2.1-4.6-4.6-4.6H11"/>
			<path class="st17" d="M11,30h32.7c2.6,0,4.6-2.1,4.6-4.6s-2.1-4.6-4.6-4.6c-2.6,0-4.6,2.1-4.6,4.6c0,0.8,0.2,1.6,0.6,2.2"/>
		</g>
	</g>
</g>
<g id="button">
</g>
<g id="text">
</g>
<g id="guide">
</g>
<g id="SPEC" class="st32">
</g>
<g id="Isolation_Mode">
</g>
</svg>
