<svg id="Layer_1" data-name="Layer 1" xmlns="http://www.w3.org/2000/svg" viewBox="0 0 200 200"><title>4-15_collection_</title><path d="M82.26,148.4a2.64,2.64,0,0,0-2.66,2.74v0a2.64,2.64,0,0,0,2.67,2.67,2.49,2.49,0,0,0,2.34-1.41,3,3,0,0,0,.34-1.23,2.75,2.75,0,0,0-.24-1.23A2.58,2.58,0,0,0,82.26,148.4Z"/><path d="M111.17,148.41a2.61,2.61,0,0,0-2.61,2.69v0A2.6,2.6,0,1,0,111.17,148.41Z"/><path d="M100.24,148.4a2.71,2.71,0,0,0,0,5.43,2.65,2.65,0,0,0,2.69-2.72v0A2.64,2.64,0,0,0,100.24,148.4Z"/><path d="M134.58,149.42a2,2,0,0,0-2.06,2.1v0a2,2,0,0,0,2,2.1A2.1,2.1,0,1,0,134.58,149.42Z"/><path d="M33.55,33.91V170.33H170V33.91H33.55ZM70.29,153.63a3.73,3.73,0,0,0,3.3-2.1H76.1a6,6,0,0,1-5.79,4.19,6.15,6.15,0,1,1,0-12.29,6,6,0,0,1,5.81,4.26H73.59a3.68,3.68,0,0,0-3.31-2.16A4.06,4.06,0,0,0,70.29,153.63ZM87,155.51h-2.1v-1.26a3.27,3.27,0,0,1-3,1.54,4.67,4.67,0,0,1,0-9.33,3.28,3.28,0,0,1,3,1.55v-1.28H87v8.79Zm6.78-6.95h-0.1a2,2,0,0,0-2.22,2.21v4.74h-2.1v-8.79h2v1.15a2.51,2.51,0,0,1,2.43-1.42v2.11Zm6.69,7.22a3.24,3.24,0,0,1-2.91-1.54v1.26h-2V143.66h2.1v4.15a3.81,3.81,0,0,1,2.93-1.36A4.67,4.67,0,0,1,100.5,155.78Zm10.67,0a4.57,4.57,0,0,1-4.71-4.66v0A4.71,4.71,0,1,1,111.17,155.76Zm14.39-.26h-2.1v-4.77c0-1.31-.43-2.32-1.91-2.32s-2,1-2,2.24v4.85h-2.1v-8.79h2c0,0.38,0,.75,0,1.17a2.87,2.87,0,0,1,2.74-1.44c2.87,0,3.41,2.21,3.41,3.76v5.3Zm-22.81-26.45a33.59,33.59,0,1,1,29.08-50.38l-9,5.18a23.22,23.22,0,1,0,0,23.21l9,5.18A33.57,33.57,0,0,1,102.75,129.06Zm31.89,26.67a4.33,4.33,0,0,1-3.49-1.54,4.46,4.46,0,0,1-1-2.87,5.66,5.66,0,0,1,1.07-3.12l3.1-4.55h2.75l-2.23,3.12c-0.16.24-.34,0.46-0.51,0.72a2.79,2.79,0,0,1,.94-0.18,3.8,3.8,0,0,1,3.76,4A4.33,4.33,0,0,1,134.64,155.73Zm9-11.44h-1v3.5h-0.76v-3.5h-1v-0.64h2.73v0.64Zm5.15,3.5h-0.72v-3.24l-1.32,3.24h-0.5l-1.32-3.23v3.23h-0.72v-4.14h1l1.33,3.1,1.31-3.1h1v4.14Zm5-87a6.13,6.13,0,0,1-6.4-6A9.58,9.58,0,0,1,149.17,50L153.3,43H157l-3.3,5.57h0.22a6,6,0,0,1,6.12,6A6.21,6.21,0,0,1,153.85,60.75Z"/><path d="M153.62,51.58a4.34,4.34,0,0,0-1.87.42,4.75,4.75,0,0,0-1,2.77,3,3,0,0,0,3.1,3,3,3,0,0,0,2.95-3A3.06,3.06,0,0,0,153.62,51.58Z"/></svg>