<svg id="Layer_1" data-name="Layer 1" xmlns="http://www.w3.org/2000/svg" viewBox="0 0 200 200"><defs><style>.cls-1{fill:#231f20;}</style></defs><title>4-15_collection</title><polygon class="cls-1" points="53.7 127.75 45.15 133.84 48.71 138.85 49.88 138.02 47.18 134.23 54.57 128.97 53.7 127.75"/><path class="cls-1" d="M55.19,138.58a5.25,5.25,0,1,0,7.52-.36A5.23,5.23,0,0,0,55.19,138.58Zm6.57,6.14a3.76,3.76,0,1,1,0-5.46A3.77,3.77,0,0,1,61.77,144.72Z"/><polygon class="cls-1" points="72.28 154.43 70.55 144.63 69.63 144.11 64.51 153.28 65.82 154.01 69.58 147.28 71.31 157.09 72.23 157.6 77.36 148.43 76.05 147.7 72.28 154.43"/><path class="cls-1" d="M85.69,152.64a4,4,0,0,1,2.41,1.9l1.23-.68a5.37,5.37,0,1,0-6,7.85,5.34,5.34,0,0,0,4.45-.78L89,156.51l-4.33-1.21-0.38,1.37,2.89,0.81-0.72,2.6a3.65,3.65,0,0,1-2.75.25A4,4,0,0,1,85.69,152.64Z"/><path class="cls-1" d="M107.19,157.68a2.62,2.62,0,0,0,.7-1.92,2.71,2.71,0,0,0-1-1.93,3,3,0,0,0-2.2-.59l-3.56.23,0.68,10.48,4-.26a3.36,3.36,0,0,0,2.24-.85A3.1,3.1,0,0,0,107.19,157.68Zm-4.47-2.9,1.8-.12A1.73,1.73,0,0,1,106,155a1.34,1.34,0,0,1,.12,1.83,1.73,1.73,0,0,1-1.41.53l-1.8.12Zm4.46,6.83a2.2,2.2,0,0,1-1.69.65l-2.28.15L103,158.9l2.28-.15a2.19,2.19,0,0,1,1.76.43,1.75,1.75,0,0,1,.57,1.18A1.79,1.79,0,0,1,107.18,161.62Z"/><polygon class="cls-1" points="116.3 160.57 115.4 157.17 118.73 156.28 118.37 154.91 115.04 155.79 114.34 153.18 118.69 152.03 118.33 150.65 112.53 152.19 115.22 162.34 121.16 160.76 120.8 159.38 116.3 160.57"/><path class="cls-1" d="M125.29,147.7L126.11,159l1.39-.7-0.23-2.91,4-2,2.2,1.92,1.39-.7-8.6-7.44Zm4.78,4.74-2.9,1.45-0.3-4.21Z"/><path class="cls-1" d="M142,147.85a4,4,0,0,1-5.07-6.12,4,4,0,0,1,3-.85l0.17-1.4a5.36,5.36,0,1,0,4.81,5.41l-1.43-.08A3.93,3.93,0,0,1,142,147.85Z"/><polygon class="cls-1" points="154.63 136.35 155.57 135.17 147.33 128.66 146.4 129.84 149.63 132.4 146 136.98 142.77 134.42 141.84 135.6 150.07 142.12 151 140.94 147.12 137.87 150.75 133.28 154.63 136.35"/><path class="cls-1" d="M114,106h17.88L137,118.1H139L123.45,81.9h-1.07l-15.52,36.2h1.93Zm0.77-1.76,8.19-19.1,8.19,19.1H114.73Z"/><path class="cls-1" d="M100,27.7A72.3,72.3,0,1,0,172.3,100,72.38,72.38,0,0,0,100,27.7Zm0,143A70.7,70.7,0,1,1,170.7,100,70.78,70.78,0,0,1,100,170.7Z"/><path class="cls-1" d="M73.93,51.85l-2.12-4.26,1-.52,5.34,2.66L79.74,49l-5.39-2.7a2.42,2.42,0,0,0,.82-1,2.67,2.67,0,0,0-1.85-3.72,2.9,2.9,0,0,0-2,.35l-3.16,1.58,4.51,9ZM70,44l1.81-.9a1.57,1.57,0,0,1,1.25-.21,1.32,1.32,0,0,1,.82,1.65,1.57,1.57,0,0,1-.92.88l-1.81.9Z"/><path class="cls-1" d="M82.37,42a3.58,3.58,0,0,0-1,3.28c0.47,1.83,2.28,2.6,4.21,2.1a4.35,4.35,0,0,0,2.65-1.87l1.24,0.72,1.79-.46-2.53-1.48a4.68,4.68,0,0,0,0-2.31A6.33,6.33,0,0,0,87.9,40l-1.17.67a5.2,5.2,0,0,1,.68,1.6,3.35,3.35,0,0,1,.09,1.23L84.43,41.7a3,3,0,0,0,.79-2.65,2.3,2.3,0,0,0-4.46,1.15A3.15,3.15,0,0,0,82.37,42Zm4.72,2.82a2.94,2.94,0,0,1-1.81,1.3,1.93,1.93,0,0,1-2.56-1.19,2.46,2.46,0,0,1,.78-2.24Zm-4.31-6.1a0.94,0.94,0,0,1,1.12.71A2,2,0,0,1,83.26,41a2.48,2.48,0,0,1-1.17-1.17A0.94,0.94,0,0,1,82.78,38.69Z"/><path class="cls-1" d="M102.92,40.13a5.08,5.08,0,0,0-2.14-4,5.51,5.51,0,0,0-3.49-.85l-3,.09,0.29,10.09,3-.09A5.55,5.55,0,0,0,101,44.28,5.07,5.07,0,0,0,102.92,40.13ZM100.33,43a4.1,4.1,0,0,1-2.86.93L96,44l-0.21-7.35,1.51,0a4.1,4.1,0,0,1,2.91.77A3.87,3.87,0,0,1,100.33,43Z"/><rect class="cls-1" x="110.66" y="41.6" width="10.11" height="1.44" transform="translate(44.56 142.91) rotate(-74.82)"/><polygon class="cls-1" points="124.23 42.71 126.5 52.01 127.41 52.45 131.76 43.34 130.46 42.72 127.26 49.41 125 40.1 124.09 39.67 119.73 48.78 121.03 49.4 124.23 42.71"/><path class="cls-1" d="M95.7,110.85A16.24,16.24,0,0,1,83.17,117c-9.74,0-16.81-7.16-16.81-17,0-9.7,7-17,16.36-17A16,16,0,0,1,94.49,88.1l0.29,0.31,1.33-1.23-0.28-.31a17.7,17.7,0,0,0-13.11-5.64C72.33,81.22,64.5,89.29,64.5,100c0,10.88,7.85,18.78,18.68,18.78A17.79,17.79,0,0,0,97.12,112l0.26-.33L96,110.53Z"/></svg>