<?xml version="1.0" encoding="utf-8"?>
<!-- Generator: Adobe Illustrator 19.0.0, SVG Export Plug-In . SVG Version: 6.00 Build 0)  -->
<svg width="44" height="44" version="1.1" id="Layer_1" xmlns="http://www.w3.org/2000/svg" xmlns:xlink="http://www.w3.org/1999/xlink" x="0px" y="0px"
	 viewBox="0 0 44 44" style="enable-background:new 0 0 44 44;" xml:space="preserve">

<g>
	<path fill="#A2853F" stroke="#A2853F" stroke-width="0.5" stroke-miterlimit="10" d="M25.3,17.5c0.3-0.6,0.5-1.2,0.5-2V9.6h-0.5v5.9c0,0.7-0.1,1.3-0.4,1.8c-0.6,1-1.6,1.6-2.8,1.6
		c-1.2,0-2.3-0.6-2.8-1.6c-0.3-0.5-0.4-1-0.4-1.8V9.6h-0.5v5.8c0,0.8,0.1,1.5,0.5,2c0.6,1.1,1.9,1.8,3.2,1.8
		C23.4,19.3,24.7,18.6,25.3,17.5z"/>
	<path fill="#A2853F" stroke="#A2853F" stroke-width="0.5" stroke-miterlimit="10" d="M15.7,26.3c-0.3-0.1-0.6-0.2-0.9-0.3c-1.2-0.4-2.2-0.8-2.2-2.1c0-1.4,1.3-2,2.1-2c0.8,0,1.5,0.3,2,0.8l0.1,0.1
		l0.3-0.3L17,22.5c-0.6-0.6-1.4-1-2.3-1c-1,0-2.6,0.7-2.6,2.4c0,1.5,1.3,2,2.6,2.5c0.3,0.1,0.6,0.2,0.9,0.4c1,0.5,1.5,1.1,1.5,2
		c0,1.4-1.1,2.1-2.2,2.1c-1.1,0-2-0.5-2.7-1.5L12,29.3l-0.4,0.3l0.1,0.1c0.8,1.1,1.7,1.6,3,1.6c1.6,0,2.7-1.1,2.7-2.5
		C17.5,27.3,16.4,26.7,15.7,26.3z"/>
	<path fill="#A2853F" stroke="#A2853F" stroke-width="0.5" stroke-miterlimit="10" d="M28.7,21.6l-4.1,9.5h0.5l1.4-3.2h4.7l1.4,3.2h0.5L29,21.6H28.7z M26.7,27.5l2.2-5l2.2,5H26.7z"/>
	<path fill="#A2853F" stroke="#A2853F" stroke-width="0.5" stroke-miterlimit="10" d="M22.4,2.4C11.9,2.4,3.3,11,3.3,21.5s8.6,19.1,19.1,19.1s19.1-8.6,19.1-19.1S33,2.4,22.4,2.4z M22.4,40.2
		c-10.3,0-18.7-8.4-18.7-18.7c0-10.3,8.4-18.7,18.7-18.7c10.3,0,18.7,8.4,18.7,18.7C41.1,31.8,32.7,40.2,22.4,40.2z"/>
</g>
</svg>
