<?xml version="1.0" encoding="utf-8"?>
<!-- Generator: Adobe Illustrator 16.0.0, SVG Export Plug-In . SVG Version: 6.00 Build 0)  -->
<!DOCTYPE svg PUBLIC "-//W3C//DTD SVG 1.1//EN" "http://www.w3.org/Graphics/SVG/1.1/DTD/svg11.dtd">
<svg version="1.1" id="Layer_1" xmlns="http://www.w3.org/2000/svg" xmlns:xlink="http://www.w3.org/1999/xlink" x="0px" y="0px"
	 width="168.676px" height="45.014px" viewBox="0 0 168.676 45.014" enable-background="new 0 0 168.676 45.014"
	 xml:space="preserve">
<g>
	<path fill="#A2853F" d="M15.398,20.883l7.408,12.95l7.512-12.95h-7.512H15.398z M22.813,31.733l-5.608-9.803h11.293L22.813,31.733z
		"/>
	<polygon fill="#A2853F" points="15.398,7.934 22.806,20.883 30.318,7.934 	"/>
</g>
<g>
	<g>
		<path fill="#A2853F" d="M65.174,13.155h4.026c2.42,0,3.546,0.291,4.339,0.793c1.251,0.751,2.107,2.398,2.107,4.15
			c0.021,1.043-0.271,2.149-0.918,3.025c-0.918,1.25-2.024,1.543-3.442,1.689l3.838,5.778h-1.877l-4.36-6.737h0.501
			c1.084,0,2.587-0.021,3.421-0.793c0.814-0.793,1.168-1.732,1.168-2.838c0-1.146-0.563-2.357-1.523-2.983
			c-0.772-0.499-1.732-0.563-3.129-0.563h-2.42v13.915h-1.731V13.155z"/>
		<path fill="#A2853F" d="M78.613,28.592h-1.856l6.446-15.437h1.668l6.384,15.437h-1.877l-1.794-4.339h-7.197L78.613,28.592z
			 M83.974,15.096l-3.066,7.739h6.154L83.974,15.096z"/>
		<path fill="#A2853F" d="M104.021,26.047l-0.022-12.892h1.669v15.437h-1.669l-9.158-12.997l0.042,12.997h-1.669V13.155h1.752
			L104.021,26.047z"/>
		<path fill="#A2853F" d="M121.788,17.16c-0.481-0.667-1.065-1.23-1.733-1.67c-1-0.688-2.21-1.084-3.587-1.084
			c-3.38,0-6.321,2.587-6.321,6.446c0,3.922,2.962,6.509,6.342,6.509c1.626,0,3.066-0.563,4.13-1.397
			c1.084-0.856,1.836-2.023,2.085-3.234h-7.677v-1.418h9.68c-0.021,0.896-0.23,2.022-0.688,2.982
			c-1.335,2.9-4.423,4.589-7.531,4.589c-4.506,0-8.074-3.462-8.074-8.03c0-4.632,3.629-7.97,8.095-7.97
			c3.129,0,6.028,1.753,7.239,4.277H121.788z"/>
		<path fill="#A2853F" d="M145.146,13.155h1.731v13.913h7.552v1.523h-9.284V13.155z"/>
		<path fill="#A2853F" d="M156.335,13.155h1.711v15.437h-1.711V13.155z"/>
	</g>
	<path fill="#A2853F" d="M134.731,12.885c-4.236,0-8.102,3.114-8.102,8.142v0.02c0,3.947,3.241,7.788,8.079,7.788
		c4.779,0,8.143-3.694,8.143-7.974S139.465,12.885,134.731,12.885z M135.969,25.604l-1.248,2.152l-1.256-2.192
		c-2.063-0.61-3.272-2.622-3.272-4.75v-0.021c0-2.349,1.601-4.88,4.559-4.88c3.073,0,4.539,2.777,4.539,4.947
		C139.29,22.707,138.202,25.001,135.969,25.604z"/>
</g>
</svg>
