<?xml version="1.0" encoding="utf-8"?>
<!-- Generator: Adobe Illustrator 16.0.0, SVG Export Plug-In . SVG Version: 6.00 Build 0)  -->
<!DOCTYPE svg PUBLIC "-//W3C//DTD SVG 1.1//EN" "http://www.w3.org/Graphics/SVG/1.1/DTD/svg11.dtd">
<svg version="1.1" id="Layer_1" xmlns="http://www.w3.org/2000/svg" xmlns:xlink="http://www.w3.org/1999/xlink" x="0px" y="0px"
	 width="360.333px" height="44px" viewBox="0 0 360.333 44" enable-background="new 0 0 360.333 44" xml:space="preserve">
<g>
	<path fill="#FFFFFF" d="M163.661,17.975l1.726,5.368h-3.391L163.661,17.975z M162.141,13.29l-6.097,15.399h4.266l0.707-2.226h5.389
		l0.729,2.226h4.306l-5.908-15.399H162.141z"/>
	<g>
		<path fill="#FFFFFF" d="M174.077,24.398c0.25,2.567,2.119,3.102,3.077,3.102c1.604,0,3.084-1.227,3.084-2.938
			c0-2.16-1.858-2.633-3.631-3.227c-1.261-0.367-3.945-1.157-3.945-4.063c-0.041-2.739,2.238-4.257,4.581-4.257
			c1.914,0,4.131,1.067,4.374,3.979h-1.706c-0.182-0.992-0.683-2.513-2.737-2.513c-1.537,0-2.8,1.048-2.8,2.638
			c-0.014,1.876,1.488,2.341,3.823,3.118c1.454,0.567,3.755,1.384,3.755,4.214c0,2.511-1.89,4.516-4.772,4.516
			c-2.575,0-4.713-1.622-4.816-4.569H174.077z"/>
		<polygon fill="#FFFFFF" points="184.041,28.688 184.041,13.292 186.452,13.292 192.168,26.208 197.842,13.292 200.249,13.292 
			200.249,28.688 198.632,28.688 198.671,14.989 192.697,28.688 191.601,28.688 185.613,14.989 185.656,28.688 		"/>
		<path fill="#FFFFFF" d="M236.312,28.688h-1.858l6.432-15.397h1.663l6.37,15.397h-1.873l-1.785-4.325h-7.171L236.312,28.688z
			 M241.651,15.231l-3.056,7.72h6.145L241.651,15.231z"/>
		<path fill="#FFFFFF" d="M156.524,19.929h-7.666v3.141h3.13c-0.209,0.75-0.644,1.375-1.269,1.789
			c-0.625,0.438-1.438,0.687-2.415,0.687c-1.935,0-4.224-1.395-4.224-4.618c0-3.037,2.269-4.473,4.204-4.473
			c1.082,0,1.932,0.395,2.58,0.956c0.331,0.312,0.604,0.667,0.811,1.042h4.412C155.235,15.476,152.073,13,148.39,13
			c-4.537,0-8.241,3.33-8.241,7.928c0,4.433,3.519,8.072,8.177,8.072c2.54,0,5.992-1.268,7.491-4.661
			C156.485,22.843,156.609,21.032,156.524,19.929"/>
		<path fill="#FFFFFF" d="M228.498,21.433v1.417h4.903c-0.249,1.208-0.992,2.36-2.077,3.208c-1.069,0.84-2.494,1.398-4.122,1.398
			c-3.371,0-6.326-2.565-6.326-6.484c0-3.86,2.951-6.438,6.317-6.438c1.359,0,2.576,0.397,3.581,1.084
			c0.654,0.436,1.232,1,1.718,1.665h1.963c-1.217-2.515-4.115-4.265-7.227-4.265c-4.453,0-8.074,3.342-8.074,7.954
			c0,4.555,3.56,8.003,8.052,8.003c3.109,0,6.175-1.688,7.52-4.563c0.457-0.97,0.652-2.083,0.681-2.978H228.498z"/>
		<polygon fill="#FFFFFF" points="124.136,13.359 120.19,13.359 116.418,19.862 112.699,13.359 108.653,13.359 114.432,23.457 
			114.432,28.688 118.366,28.688 118.366,23.31 		"/>
		<path fill="#FFFFFF" d="M209.768,13.013c-4.242,0-8.115,3.12-8.115,8.153v0.021c0,3.956,3.246,7.806,8.095,7.806
			c4.787,0,8.157-3.703,8.157-7.991C217.904,16.715,214.513,13.013,209.768,13.013 M210.908,25.373l-1.149,1.983l-1.156-2.02
			c-1.9-0.563-3.016-2.417-3.016-4.377V20.94c0-2.165,1.477-4.498,4.202-4.498c2.831,0,4.181,2.56,4.181,4.559
			C213.97,22.703,212.969,24.816,210.908,25.373"/>
		<path fill="#FFFFFF" d="M130.747,13.013c-4.244,0-8.117,3.12-8.117,8.153v0.021c0,3.956,3.249,7.806,8.097,7.806
			c4.787,0,8.157-3.703,8.157-7.991C138.883,16.715,135.492,13.013,130.747,13.013 M131.889,25.373l-1.149,1.983l-1.157-2.02
			c-1.902-0.563-3.019-2.417-3.019-4.377V20.94c0-2.165,1.479-4.498,4.203-4.498c2.831,0,4.183,2.56,4.183,4.559
			C134.95,22.703,133.945,24.816,131.889,25.373"/>
	</g>
</g>
</svg>
