<?xml version="1.0" encoding="utf-8"?>
<!-- Generator: Adobe Illustrator 16.0.0, SVG Export Plug-In . SVG Version: 6.00 Build 0)  -->
<!DOCTYPE svg PUBLIC "-//W3C//DTD SVG 1.1//EN" "http://www.w3.org/Graphics/SVG/1.1/DTD/svg11.dtd">
<svg version="1.1" xmlns="http://www.w3.org/2000/svg" xmlns:xlink="http://www.w3.org/1999/xlink" x="0px" y="0px" width="44px"
	 height="44px" viewBox="0 0 44 44" enable-background="new 0 0 44 44" xml:space="preserve">
<g id="Layer_1" display="none">
	<polygon display="inline" fill="#AE8637" points="29.966,18.376 28.692,19.65 30.497,21.455 23.257,21.455 23.257,14.214 
		25.061,16.02 26.335,14.746 22.356,10.767 18.377,14.746 19.651,16.02 21.455,14.214 21.455,21.455 14.214,21.455 16.02,19.65 
		14.745,18.376 10.767,22.356 14.745,26.335 16.02,25.063 14.214,23.257 21.455,23.257 21.455,30.497 19.651,28.693 18.377,29.966 
		22.356,33.945 26.335,29.966 25.061,28.693 23.257,30.497 23.257,23.257 30.497,23.257 28.692,25.063 29.966,26.335 33.944,22.356 
			"/>
</g>
<g id="Layer_2">
	<g>
		<defs>
			<rect id="SVGID_1_" x="-2" y="3" width="47.433" height="39"/>
		</defs>
		<clipPath id="SVGID_2_">
			<use xlink:href="#SVGID_1_"  overflow="visible"/>
		</clipPath>
		<path clip-path="url(#SVGID_2_)" fill="#AE8637" d="M17.12,17.065l-3.369-3.369l-0.839,0.838l3.369,3.369
			C16.537,17.602,16.817,17.321,17.12,17.065"/>
		<path clip-path="url(#SVGID_2_)" fill="#AE8637" d="M22.309,15.405v-4.763h-1.186v4.763c0.196-0.016,0.393-0.03,0.593-0.03
			S22.113,15.389,22.309,15.405"/>
		<path clip-path="url(#SVGID_2_)" fill="#AE8637" d="M19.548,15.715l-1.821-4.397l-1.096,0.454l1.823,4.402
			C18.803,15.992,19.168,15.836,19.548,15.715"/>
		<path clip-path="url(#SVGID_2_)" fill="#AE8637" d="M15.389,19.237l-4.402-1.823l-0.454,1.095l4.397,1.821
			C15.053,19.951,15.208,19.587,15.389,19.237"/>
		<path clip-path="url(#SVGID_2_)" fill="#AE8637" d="M27.151,17.903l3.368-3.369l-0.838-0.839l-3.369,3.369
			C26.615,17.321,26.896,17.602,27.151,17.903"/>
		<path clip-path="url(#SVGID_2_)" fill="#AE8637" d="M28.501,20.332l4.397-1.822l-0.453-1.096l-4.402,1.824
			C28.225,19.587,28.38,19.951,28.501,20.332"/>
		<path clip-path="url(#SVGID_2_)" fill="#AE8637" d="M14.591,22.5c0-0.2,0.014-0.396,0.03-0.593H9.858v1.186h4.763
			C14.604,22.896,14.591,22.7,14.591,22.5"/>
		<path clip-path="url(#SVGID_2_)" fill="#AE8637" d="M26.803,11.771l-1.097-0.454l-1.821,4.396
			c0.379,0.122,0.744,0.277,1.095,0.459L26.803,11.771z"/>
		<path clip-path="url(#SVGID_2_)" fill="#AE8637" d="M28.812,21.907c0.017,0.196,0.03,0.393,0.03,0.593s-0.014,0.396-0.03,0.593
			h4.763v-1.186H28.812z"/>
		<path clip-path="url(#SVGID_2_)" fill="#AE8637" d="M26.313,27.936l3.369,3.369l0.838-0.839l-3.367-3.369
			C26.896,27.398,26.615,27.68,26.313,27.936"/>
		<path clip-path="url(#SVGID_2_)" fill="#AE8637" d="M23.885,29.285l1.821,4.397l1.097-0.454l-1.823-4.402
			C24.629,29.008,24.264,29.164,23.885,29.285"/>
		<path clip-path="url(#SVGID_2_)" fill="#AE8637" d="M28.043,25.763l4.402,1.823l0.453-1.096l-4.397-1.821
			C28.38,25.049,28.225,25.413,28.043,25.763"/>
		<path clip-path="url(#SVGID_2_)" fill="#AE8637" d="M16.63,33.229l1.096,0.453l1.821-4.396c-0.38-0.121-0.745-0.277-1.095-0.459
			L16.63,33.229z"/>
		<path clip-path="url(#SVGID_2_)" fill="#AE8637" d="M16.281,27.097l-3.368,3.369l0.838,0.839l3.369-3.369
			C16.817,27.68,16.537,27.398,16.281,27.097"/>
		<path clip-path="url(#SVGID_2_)" fill="#AE8637" d="M21.124,29.596v4.763h1.186v-4.763c-0.196,0.016-0.393,0.029-0.593,0.029
			S21.319,29.611,21.124,29.596"/>
		<path clip-path="url(#SVGID_2_)" fill="#AE8637" d="M14.931,24.669l-4.397,1.821l0.454,1.096l4.402-1.824
			C15.208,25.413,15.053,25.049,14.931,24.669"/>
		<path clip-path="url(#SVGID_2_)" fill="#AE8637" d="M21.716,16.563c-3.279,0-5.938,2.658-5.938,5.938s2.658,5.938,5.938,5.938
			c3.279,0,5.937-2.658,5.937-5.938S24.995,16.563,21.716,16.563"/>
	</g>
</g>
</svg>
