<?xml version="1.0" encoding="utf-8"?>
<!-- Generator: Adobe Illustrator 16.0.0, SVG Export Plug-In . SVG Version: 6.00 Build 0)  -->
<!DOCTYPE svg PUBLIC "-//W3C//DTD SVG 1.1//EN" "http://www.w3.org/Graphics/SVG/1.1/DTD/svg11.dtd">
<svg version="1.1" xmlns="http://www.w3.org/2000/svg" xmlns:xlink="http://www.w3.org/1999/xlink" x="0px" y="0px" width="44px"
	 height="44px" viewBox="0 0 44 44" enable-background="new 0 0 44 44" xml:space="preserve">
<g id="Layer_1" display="none">
	<polygon display="inline" fill="#AE8637" points="29.966,18.376 28.692,19.65 30.497,21.455 23.257,21.455 23.257,14.214 
		25.061,16.02 26.335,14.746 22.356,10.767 18.377,14.746 19.651,16.02 21.455,14.214 21.455,21.455 14.214,21.455 16.02,19.65 
		14.745,18.376 10.767,22.356 14.745,26.335 16.02,25.063 14.214,23.257 21.455,23.257 21.455,30.497 19.651,28.693 18.377,29.966 
		22.356,33.945 26.335,29.966 25.061,28.693 23.257,30.497 23.257,23.257 30.497,23.257 28.692,25.063 29.966,26.335 33.944,22.356 
			"/>
</g>
<g id="Layer_2">
	<g>
		<defs>
			<rect id="SVGID_1_" x="-1.912" y="3" width="45.912" height="37.75"/>
		</defs>
		<clipPath id="SVGID_2_">
			<use xlink:href="#SVGID_1_"  overflow="visible"/>
		</clipPath>
		<path clip-path="url(#SVGID_2_)" fill="#AE8637" d="M17.162,23.752c0,2.147,1.737,3.883,3.883,3.883
			c2.146,0,3.881-1.735,3.881-3.883c0-2.144-3.881-7.637-3.881-7.637S17.162,21.608,17.162,23.752"/>
		<polygon clip-path="url(#SVGID_2_)" fill="#AE8637" points="12.52,27.926 10.989,27.926 10.989,33.423 16.484,33.423 
			16.484,31.892 12.52,31.892 		"/>
		<polygon clip-path="url(#SVGID_2_)" fill="#AE8637" points="25.604,10.328 25.604,11.858 29.567,11.858 29.567,15.822 
			31.099,15.822 31.099,10.328 		"/>
	</g>
</g>
</svg>
