<?xml version="1.0" encoding="utf-8"?>
<!-- Generator: Adobe Illustrator 16.0.0, SVG Export Plug-In . SVG Version: 6.00 Build 0)  -->
<!DOCTYPE svg PUBLIC "-//W3C//DTD SVG 1.1//EN" "http://www.w3.org/Graphics/SVG/1.1/DTD/svg11.dtd">
<svg version="1.1" id="Layer_1" xmlns="http://www.w3.org/2000/svg" xmlns:xlink="http://www.w3.org/1999/xlink" x="0px" y="0px"
	 width="44px" height="44px" viewBox="0 0 44 44" enable-background="new 0 0 44 44" xml:space="preserve">
<polygon fill="#AE8637" points="29.966,18.376 28.692,19.65 30.497,21.455 23.257,21.455 23.257,14.214 25.061,16.02 26.335,14.746 
	22.356,10.767 18.377,14.746 19.651,16.02 21.455,14.214 21.455,21.455 14.214,21.455 16.02,19.65 14.745,18.376 10.767,22.356 
	14.745,26.335 16.02,25.063 14.214,23.257 21.455,23.257 21.455,30.497 19.651,28.693 18.377,29.966 22.356,33.945 26.335,29.966 
	25.061,28.693 23.257,30.497 23.257,23.257 30.497,23.257 28.692,25.063 29.966,26.335 33.944,22.356 "/>
</svg>
