<?xml version="1.0" encoding="utf-8"?>
<!-- Generator: Adobe Illustrator 16.0.0, SVG Export Plug-In . SVG Version: 6.00 Build 0)  -->
<!DOCTYPE svg PUBLIC "-//W3C//DTD SVG 1.1//EN" "http://www.w3.org/Graphics/SVG/1.1/DTD/svg11.dtd">
<svg version="1.1" xmlns="http://www.w3.org/2000/svg" xmlns:xlink="http://www.w3.org/1999/xlink" x="0px" y="0px" width="44px"
	 height="44px" viewBox="0 0 44 44" enable-background="new 0 0 44 44" xml:space="preserve">
<g id="Layer_1" display="none">
	<polygon display="inline" fill="#AE8637" points="29.966,18.376 28.692,19.65 30.497,21.455 23.257,21.455 23.257,14.214 
		25.061,16.02 26.335,14.746 22.356,10.767 18.377,14.746 19.651,16.02 21.455,14.214 21.455,21.455 14.214,21.455 16.02,19.65 
		14.745,18.376 10.767,22.356 14.745,26.335 16.02,25.063 14.214,23.257 21.455,23.257 21.455,30.497 19.651,28.693 18.377,29.966 
		22.356,33.945 26.335,29.966 25.061,28.693 23.257,30.497 23.257,23.257 30.497,23.257 28.692,25.063 29.966,26.335 33.944,22.356 
			"/>
</g>
<g id="Layer_2">
	<g>
		<defs>
			<rect id="SVGID_1_" x="1" y="6" width="38.918" height="32"/>
		</defs>
		<clipPath id="SVGID_2_">
			<use xlink:href="#SVGID_1_"  overflow="visible"/>
		</clipPath>
		<path clip-path="url(#SVGID_2_)" fill="#AE8637" d="M23.611,27.794l1.144-1.291c-1.401-0.805-1.95-1.813-1.95-1.813
			c0.906,0.624,1.813,0.926,2.62,1.057l3.506-3.961c-1.153-0.76-1.614-1.606-1.614-1.606c0.747,0.512,1.49,0.805,2.181,0.967
			l2.006-2.266c2.985-2.985,1.355-6.524,1.355-6.524s-3.539-1.63-6.524,1.356l-2.266,2.006c0.162,0.69,0.455,1.435,0.967,2.181
			c0,0-0.846-0.461-1.607-1.615l-3.96,3.506c0.131,0.808,0.433,1.714,1.056,2.621c0,0-1.008-0.548-1.812-1.951l-1.292,1.144
			c-1.706,1.705-1.986,5.373-2.017,7.167c-1.683,1.43-4.349,2.944-7.49,1.998l-0.296,0.979c3.379,1.019,6.241-0.435,8.126-1.937
			C17.002,29.835,21.629,29.776,23.611,27.794 M29.74,15.113l0.361,0.362L18.53,27.046l-0.361-0.362L29.74,15.113z"/>
	</g>
</g>
</svg>
