<?xml version="1.0" encoding="utf-8"?>
<!-- Generator: Adobe Illustrator 16.0.0, SVG Export Plug-In . SVG Version: 6.00 Build 0)  -->
<!DOCTYPE svg PUBLIC "-//W3C//DTD SVG 1.1//EN" "http://www.w3.org/Graphics/SVG/1.1/DTD/svg11.dtd">
<svg version="1.1" xmlns="http://www.w3.org/2000/svg" xmlns:xlink="http://www.w3.org/1999/xlink" x="0px" y="0px" width="44px"
	 height="44px" viewBox="0 0 44 44" enable-background="new 0 0 44 44" xml:space="preserve">
<g id="Layer_1" display="none">
	<polygon display="inline" fill="#AE8637" points="29.966,18.376 28.692,19.65 30.497,21.455 23.257,21.455 23.257,14.214 
		25.061,16.02 26.335,14.746 22.356,10.767 18.377,14.746 19.651,16.02 21.455,14.214 21.455,21.455 14.214,21.455 16.02,19.65 
		14.745,18.376 10.767,22.356 14.745,26.335 16.02,25.063 14.214,23.257 21.455,23.257 21.455,30.497 19.651,28.693 18.377,29.966 
		22.356,33.945 26.335,29.966 25.061,28.693 23.257,30.497 23.257,23.257 30.497,23.257 28.692,25.063 29.966,26.335 33.944,22.356 
			"/>
</g>
<g id="Layer_2">
	<rect x="9.98" y="28.592" fill="#AE8637" width="24.791" height="1.665"/>
	<rect x="9.98" y="14.13" fill="#AE8637" width="24.792" height="1.665"/>
	<polygon fill="#AE8637" points="12.754,19.116 11.625,19.116 9.98,24.987 11.11,24.987 	"/>
	<polygon fill="#AE8637" points="12.754,24.987 13.884,24.987 15.528,19.116 14.398,19.116 	"/>
	<polygon fill="#AE8637" points="18.302,19.116 17.172,19.116 15.528,24.987 16.658,24.987 	"/>
	<polygon fill="#AE8637" points="21.075,19.116 19.946,19.116 18.302,24.987 19.432,24.987 	"/>
	<polygon fill="#AE8637" points="23.85,19.116 22.72,19.116 21.075,24.987 22.203,24.987 	"/>
	<polygon fill="#AE8637" points="26.623,19.116 25.494,19.116 23.85,24.987 24.979,24.987 	"/>
	<polygon fill="#AE8637" points="29.398,19.116 28.268,19.116 26.623,24.987 27.751,24.987 	"/>
	<polygon fill="#AE8637" points="32.17,19.116 31.041,19.116 29.397,24.987 30.526,24.987 	"/>
	<polygon fill="#AE8637" points="34.945,19.116 33.814,19.116 32.17,24.987 33.299,24.987 	"/>
</g>
</svg>
